<svg xmlns="http://www.w3.org/2000/svg" width="28" height="33" fill="none" viewBox="0 0 28 33">
  <path stroke="#1E2022" stroke-linecap="round" stroke-linejoin="round" stroke-width="2" d="M1.052 7.784H26.33"/>
  <path fill="#1E2022" d="M24.523 7.784a1 1 0 1 0-2 0h2Zm-19.662 0a1 1 0 0 0-2 0h2Zm2.213 0a1 1 0 1 0 2 0h-2Zm11.236 0a1 1 0 1 0 2 0h-2Zm4.213 0v20.337h2V7.784h-2Zm0 20.337c0 1.084-.841 1.905-1.809 1.905v2c2.135 0 3.809-1.78 3.809-3.905h-2Zm-1.809 1.905H6.67v2h14.044v-2Zm-14.044 0c-.968 0-1.81-.82-1.81-1.905h-2c0 2.125 1.675 3.905 3.81 3.905v-2Zm-1.81-1.905V7.784h-2v20.337h2ZM9.075 7.784V4.88h-2v2.905h2Zm0-2.905c0-1.084.842-1.905 1.809-1.905v-2c-2.135 0-3.809 1.78-3.809 3.905h2Zm1.809-1.905h5.618v-2h-5.618v2Zm5.618 0c.967 0 1.809.82 1.809 1.905h2c0-2.125-1.674-3.905-3.81-3.905v2Zm1.809 1.905v2.905h2V4.88h-2Z"/>
  <path stroke="#1E2022" stroke-linecap="round" stroke-linejoin="round" stroke-width="2" d="M10.883 15.047v8.716m5.617-8.716v8.716"/>
</svg>
