<svg xmlns="http://www.w3.org/2000/svg" width="105" height="85" fill="none" viewBox="0 0 105 85">
  <path fill="#FF3B6A" d="M81.362 53.022c-.254 6.506 1.703 12.918 5.586 18.302 0 0 .894 10.767-.67 11.316-1.71.463-3.523.463-5.232 0-.09-.338-1.117-2.539 2.46-2.74a43.553 43.553 0 0 0-.67-6.531c-.447-1.18-8.731-5.265-15.651-12.78-6.92-7.517-12.375-3.024-20.782-1.665a68.538 68.538 0 0 1-12.43 1.158s-2.236 20.734-3.912 22.894h-6.428a2.467 2.467 0 0 1 .596-2.068 2.795 2.795 0 0 1 2.05-.924s-.537-15.636-1.241-18.818a202.415 202.415 0 0 0-7.051-23.368"/>
  <path fill="url(#a)" d="M22.705 6.916s2.069.168 5.21 4.825c3.14 4.657 8.593 14.55 10.598 15.066 2.004.517 27.121 3.037 33.057 3.888 4.052.677 8 1.816 11.76 3.393 0 0 10.598-.684 14.534 10.53 2.997 8.428 5.156 17.594 6.987 22.124a.814.814 0 0 1-.285.97.938.938 0 0 1-1.069.02c-4.296-2.877-11.861-8.818-13.068-16.132-.28 7.038 1.827 13.977 6.015 19.809 0 0 .973 11.652-.726 12.244a10.801 10.801 0 0 1-5.657 0c-.066-.369-1.263-2.74 2.66-2.96a47.537 47.537 0 0 0-.726-7.071c-.482-1.276-9.453-5.605-16.904-13.833-7.45-8.229-13.414-3.266-22.493-1.802a92.58 92.58 0 0 1-15.875 1.253s-2.46 22.475-4.236 24.79h-6.942c-.145-.8.088-1.62.639-2.242a3.014 3.014 0 0 1 2.223-.998s-.43-16.984-1.34-20.378c-.912-3.393-7.915-11.494-9.894-17.91-1.979-6.417-1.117-17.711-2.237-19.034-1.119-1.322-4.013-2.227-7.824-2.227s-5.586-1.243-6.104-4.371c0 0-1.733-1.74.86-2.329a56.95 56.95 0 0 0 7.109-1.832c.548-.359 2.962-6.818 8.608-6.47 0 0 .928-6.205 2.237-6.226 1.308-.02 2.883 6.903 2.883 6.903Z"/>
  <path fill="#FF3B6A" d="M52.598 57.995c8.593-1.381 14.366-5.828 21.24.569-5.353-5.92-1.718-9.922-10.451-8.229a217.37 217.37 0 0 1-26.685 2.276 22.665 22.665 0 0 1 0 6.637c5.329.04 10.65-.38 15.898-1.253h-.002Zm22.492 1.802.336.348a2.945 2.945 0 0 0-.335-.348ZM19.386.374a17.364 17.364 0 0 0-1.766 5.91c1.051.043 2.095.178 3.12.405 0-4.102-.862-5.726-1.354-6.315Zm8.172 63.846c-.39-5.784-.917-11.757-.917-11.757-11.387-7.47-10.263-24.117-9.973-30.501.29-6.384-4.54-6.449-6.295-7.986s4.74-7.913 7.245-7.694c-5.646-.348-8.061 6.11-8.609 6.47A56.934 56.934 0 0 1 1.9 14.583c-2.593.589-.86 2.328-.86 2.328.538 3.16 2.325 4.372 6.104 4.372 3.78 0 6.707.907 7.825 2.227 1.117 1.32.245 12.643 2.236 19.033 1.992 6.39 8.944 14.455 9.894 17.91a27.56 27.56 0 0 1 .46 3.767ZM90.43 51.61c1.207 7.312 8.775 13.255 13.145 16.132.325.25.792.25 1.118 0a23.492 23.492 0 0 1-4.639-8.43c-5.085-13.411-10.787-17.268-10.787-17.268a24.556 24.556 0 0 1 1.162 9.567Z" opacity=".4"/>
  <path fill="#fff" d="M36.724 36.026c1.52-2.013-1.811-6.66 11.537-5.264 13.347 1.395 23.868 2.707 31.302 5.69 7.433 2.982 7.824 2.024 7.568 1.358-.255-.666-1.677-3.24 3.242-.608 4.92 2.633 6.942 9.756 10.274 15.952-.838-2.803-1.755-5.723-2.76-8.565-3.958-11.179-14.535-10.53-14.535-10.53a52.998 52.998 0 0 0-11.76-3.393c-5.936-.842-31.078-3.38-33.057-3.887-1.979-.506-7.479-10.367-10.62-15.024-3.14-4.657-5.21-4.84-5.21-4.84s9.269 9.546 10.742 20.957c1.008 7.923 1.758 10.179 3.277 8.154Z" opacity=".15"/>
  <path fill="#FF3B6A" d="M1.04 16.916s2.794-.907 1.341-2.43l-.481.106c-2.593.585-.86 2.324-.86 2.324Z"/>
  <defs>
    <linearGradient id="a" x1=".441" x2="104.912" y1="84.029" y2="84.029" gradientUnits="userSpaceOnUse">
      <stop stop-color="#E8366B"/>
      <stop offset="1" stop-color="#F5947F"/>
    </linearGradient>
  </defs>
</svg>
