<svg xmlns="http://www.w3.org/2000/svg" width="512" height="512" fill="none" viewBox="0 0 512 512">
  <path fill="#37DBFF" d="M258.665 440.261c103.8 0 187.946-84.146 187.946-187.946S362.465 64.369 258.665 64.369 70.718 148.515 70.718 252.315s84.147 187.946 187.947 187.946Z"/>
  <g filter="url(#a)">
    <path fill="#fff" d="M29.281 233.755h85.334c2.834 0 4.334-3.479 2.374-5.571-1.691-1.804-4.336-2.581-7.483-1.799-.91-7.109-6.415-12.571-13.073-12.571-2.877 0-5.544 1.024-7.716 2.763-1.774-9.881-9.632-17.331-19.058-17.331-9.439 0-17.3 7.463-19.066 17.358-2.843-2.117-6.268-3.35-9.95-3.35-7.948 0-14.682 3.957-17.014 12.986-.98 3.795 1.808 7.515 5.652 7.515Z"/>
  </g>
  <g filter="url(#b)">
    <path fill="#fff" d="M355.991 195.995h135.19c4.49 0 6.865-5.512 3.761-8.824-2.677-2.86-6.871-4.09-11.854-2.851-1.441-11.263-10.163-19.916-20.713-19.916-4.556 0-8.782 1.622-12.222 4.378-2.81-15.656-15.259-27.456-30.193-27.456-14.953 0-27.409 11.823-30.205 27.501-4.505-3.354-9.932-5.307-15.764-5.307-12.591 0-23.259 6.268-26.953 20.572-1.552 6.011 2.865 11.903 8.953 11.903Z"/>
  </g>
  <path fill="#FF3B6A" d="M434.382 262.551s-23.494-5.605-37.484 23.332c-13.989 28.937 8.64 71.371-98.743 52.005-107.381-19.365-23.363-135.012 136.227-75.337Z"/>
  <path fill="#000072" d="M389.86 280.763c8.635-17.863 20.89-22.562 29.006-23.543-124.631-39.063-197.588 30.15-158.067 65.047 7.544 4.551 17.582 8.205 30.318 10.501 107.383 19.366 84.754-23.068 98.743-52.005Z" opacity=".3"/>
  <path fill="#000072" d="M343.522 345.352c-12.412 0-27.559-1.65-45.82-4.944-27.027-4.874-44.457-16.23-49.076-31.974-3.678-12.534 1.453-26.454 14.073-38.192 14.987-13.937 38.382-23.234 65.878-26.178 32.382-3.466 69.28 2.098 106.702 16.09a2.56 2.56 0 0 1-1.485 4.889c-.935-.214-21.739-4.626-34.59 21.955-2.882 5.962-4.172 12.741-5.419 19.297-2.357 12.401-4.797 25.222-18.014 32.66-7.584 4.268-18.151 6.397-32.249 6.397Zm4.314-97.172c-6.387 0-12.632.323-18.714.974-26.403 2.828-48.755 11.647-62.936 24.838-11.149 10.369-15.758 22.397-12.648 33.001 4.045 13.786 20.053 23.865 45.072 28.377 37.246 6.718 61.665 6.43 74.649-.877 11.144-6.27 13.257-17.386 15.496-29.154 1.308-6.882 2.662-13.998 5.838-20.569 7.637-15.795 18.124-21.694 25.577-23.861.329-.096.654-.186.977-.268-25.369-8.242-50.245-12.461-73.311-12.461Z"/>
  <path fill="#FF3B6A" d="M462.123 274.432s-48.173-36.128-159.853-6.483c0 0-14.886-7.04-6.419-38.919 0 0 118.355-22.137 166.272 45.402Z"/>
  <path fill="#000072" d="M462.123 274.432s-48.173-36.128-159.853-6.483c0 0-14.886-7.04-6.419-38.919 0 0 14.874-.352 31.019 13.895 5.442 4.801 12.637 7.105 19.847 6.296 25.59-2.872 85.362-5.689 115.406 25.211Z" opacity=".3"/>
  <path fill="#fff" d="M297.771 235.43s105.875-19.803 157.892 35.197c4.348 2.225 6.46 3.805 6.46 3.805-47.917-67.539-166.272-45.402-166.272-45.402-4.161 15.669-2.68 25.334-.1 31.115-1.039-5.805-.878-13.805 2.02-24.715Z" opacity=".7"/>
  <path fill="#000072" d="M462.122 276.993a2.552 2.552 0 0 1-1.535-.512c-.114-.084-12.141-8.869-37.439-13.982-23.403-4.729-63.257-7.195-120.221 7.925a2.55 2.55 0 0 1-1.751-.16c-.688-.324-16.714-8.336-7.797-41.89a2.559 2.559 0 0 1 2.003-1.859c.3-.056 30.335-5.564 65.844-2.662 20.923 1.71 39.658 5.959 55.684 12.63 20.172 8.395 36.087 20.666 47.299 36.469a2.56 2.56 0 0 1-2.087 4.041Zm-78.015-23.238c16.654 0 30.132 1.692 40.483 3.813 11.879 2.433 20.902 5.619 27.269 8.413-24.881-26.191-62.391-34.668-90.932-37.016-30.231-2.486-56.409 1.244-63.006 2.312-5.89 23.815 2.267 32.022 4.779 33.912 32.592-8.558 59.696-11.434 81.407-11.434Z"/>
  <path fill="#FF3B6A" d="M136.053 278.555s3.961 64.243-14.476 106.62c0 0 57.071 31.393 86.997-40.257-.001-.002-42.074-2.653-72.521-66.363Z"/>
  <path fill="#000072" d="M208.574 344.916s-37.023-2.333-66.741-55.211c.672 18.111.435 48.294-6.196 74.927-2.487 9.991 4.244 19.99 14.471 21.17 10.728 1.238 24.485.133 37.518-8.799 7.636-7.179 14.855-17.496 20.948-32.087Z" opacity=".3"/>
  <path fill="#000072" d="M150.255 394.606c-16.589 0-29.206-6.8-29.912-7.187a2.56 2.56 0 0 1-1.114-3.264c17.984-41.335 14.308-104.805 14.27-105.441a2.558 2.558 0 0 1 4.864-1.261c15.361 32.144 33.697 48.083 46.374 55.794 13.688 8.325 23.903 9.111 24.004 9.117a2.56 2.56 0 0 1 2.195 3.54c-10.03 24.017-24.168 39.357-42.016 45.594-6.483 2.263-12.822 3.108-18.665 3.108Zm-25.372-10.68c5.939 2.649 23.786 9.245 42.401 2.718 15.65-5.488 28.295-18.834 37.619-39.687-4.401-.869-12.573-3.162-22.493-9.137-11.941-7.191-28.609-21.221-43.435-47.996.247 20.032-1.012 62.209-14.092 94.102Z"/>
  <path fill="#FC9340" d="m155.666 326.886-.717-.908s-14.509-14.452-47.968-21.716c0 0-6.24 1.504-10.63-3.084 0 0-6.547 7.827-13.536-3.309-.858-1.363-1.722-3.008-2.58-4.992-9.324-21.536 15.463-60.877 46.836-34.4 5.619 4.742 11.545 9.139 17.926 12.806 3.303 1.895 7.034 4.429 10.362 7.731 9.363 9.236 15.578 24.416.307 47.872Z"/>
  <path fill="#fff" d="M114.085 305.984a152.142 152.142 0 0 0-7.104-1.721s-6.24 1.504-10.63-3.085c0 0-8.25 9.862-16.116-8.301-9.312-21.511 15.399-60.775 46.714-34.503 2.163 4.621 3.667 9.62 4.166 14.893 2.676 28.179-17.03 32.717-17.03 32.717Z"/>
  <path fill="#000072" d="m155.666 326.886-.717-.908s-14.509-14.452-47.968-21.716c0 0-6.24 1.504-10.63-3.084 0 0-6.548 7.827-13.537-3.309 3.828 1.056 7.175.877 6.9-.794-.615-3.801.742-8.313.742-8.313 1.119 4.272 3.369 6.556 5.757 7.737 3.362 1.663 7.239-.887 7.192-4.637-.045-3.592 1.31-6.358 1.31-6.358.48 6.554 3.635 9.914 3.635 9.914 14.535 1.92 14.33-9.536 14.33-9.536s2.816 17.555 8.685 13.152c5.869-4.41.71-17.536.71-17.536s14.887-5.568 23.283-2.484c9.364 9.236 15.578 24.416.308 47.872Z" opacity=".3"/>
  <path fill="#000072" d="M155.664 329.449a2.559 2.559 0 0 1-2.014-.982l-.603-.769c-1.298-1.216-15.629-14.101-46.11-20.827-1.698.271-6.414.662-10.571-2.307-1.67 1.165-4.036 2.144-6.727 1.757-4.509-.653-8.463-4.834-11.751-12.427-5.7-13.158.05-32.128 12.555-41.424 11.313-8.41 25.265-6.934 38.279 4.05 6.149 5.19 11.89 9.291 17.55 12.54 11.001 6.313 18.032 14.692 20.33 24.233 2.508 10.407-.45 22.182-8.791 34.994a2.564 2.564 0 0 1-2.034 1.161l-.113.001Zm-48.679-27.747c.182 0 .363.02.537.057 28.109 6.105 43.088 17.124 47.692 21.016 6.249-10.504 8.404-20.006 6.41-28.283-1.988-8.253-8.011-15.316-17.901-20.991-5.93-3.403-11.918-7.678-18.305-13.068-11.205-9.457-22.542-10.825-31.92-3.853-10.555 7.846-15.654 24.333-10.913 35.28 2.453 5.662 5.208 8.996 7.757 9.389 2.23.342 4.041-1.711 4.06-1.733a2.583 2.583 0 0 1 1.88-.891 2.534 2.534 0 0 1 1.92.782c3.279 3.432 7.993 2.407 8.191 2.362a2.66 2.66 0 0 1 .592-.067Z"/>
  <path fill="#000072" d="M105.976 301.906c-.048.02-.032.014-.021.007l.038-.02.104-.059c.074-.042.151-.095.229-.147a4.6 4.6 0 0 0 .447-.357 3.58 3.58 0 0 0 .695-.858c.177-.311.327-.635.399-1.001.1-.354.11-.756.119-1.167l.032-.403a2.47 2.47 0 0 1 3.556-2.02c.089.043.326.138.5.205l.583.21c.393.134.793.249 1.191.358.798.206 1.593.337 2.345.376 1.531.068 2.756-.263 3.72-1.248.481-.495.896-1.163 1.203-1.945.185-.373.27-.811.416-1.221.087-.438.206-.868.275-1.324.338-1.812.488-3.741.875-5.786.994 1.824 1.532 3.817 1.679 5.923.046.525.004 1.064.006 1.603-.065.545-.069 1.091-.201 1.651a8.6 8.6 0 0 1-1.282 3.339 7.6 7.6 0 0 1-2.889 2.619c-1.174.616-2.432.905-3.634 1.005a14.06 14.06 0 0 1-3.496-.152 17.172 17.172 0 0 1-1.659-.358 14.56 14.56 0 0 1-.815-.244c-.288-.099-.512-.172-.873-.32l3.587-2.423v.001c.004.823-.041 1.667-.256 2.513a8.441 8.441 0 0 1-.978 2.427 8.675 8.675 0 0 1-1.634 2.013 9.344 9.344 0 0 1-1.553 1.152c-.093.057-.199.113-.301.169l-.168.086-.23.107-2.009-4.711Z"/>
  <path fill="#000072" d="M109.111 300.347c-.174-.137-.207-.187-.302-.274-.081-.081-.14-.15-.209-.225-.139-.149-.247-.292-.367-.437-.224-.29-.439-.577-.625-.872a14.866 14.866 0 0 1-.996-1.774c-.573-1.196-.979-2.42-1.285-3.639a23.106 23.106 0 0 1-.573-3.653c-.055-.603-.053-1.211-.079-1.805l.041-1.784.587 1.665c.233.54.437 1.083.69 1.603.498 1.042 1.047 2.039 1.681 2.953.636.91 1.33 1.751 2.087 2.465.38.353.768.689 1.169.965.196.147.399.268.593.382.096.05.195.112.282.147.043.018.094.045.127.054.022 0 .101.042.046-.012l-2.867 4.241Zm-14.523 2.684c-.277-.346-.434-.594-.625-.886a20.02 20.02 0 0 1-.516-.845 23.967 23.967 0 0 1-2.267-5.264 19.307 19.307 0 0 1-.728-3.655c-.152-1.216-.096-2.443.001-3.618.33 1.147.69 2.249 1.23 3.269a17.503 17.503 0 0 0 1.795 2.874 20.828 20.828 0 0 0 2.206 2.471c.4.374.803.736 1.22 1.073.21.168.417.331.628.484.198.144.443.32.582.384l-3.526 3.713Z"/>
  <path fill="#FC9340" d="M416.645 393.402c-7.104 8.166-16.602 8.896-25.191 7.027-5.555-1.21-10.726-3.501-14.63-5.575-4.32-2.304-7.078-4.332-7.078-4.332-8.026.307-12.141-1.236-12.141-1.236l-.083.064c-7.796 6.074-15.303 10.919-22.375 14.778-.301.166-.608.333-.909.493-21.888 11.75-39.411 14.08-47.411 14.477-.057 0-.115.006-.166.006-2.944.141-4.551.013-4.551.013l.308.134s.006 0 .019.007c8.403 3.673 9.529 15.264 1.939 20.422-4.352 2.963-8.947 4.166-13.344 4.333-12.179.473-22.867-6.995-22.867-6.995-40.551 3.488-48.346-18.701-49.421-32.026-.448-5.395.218-9.338.25-9.523v-.007l-.02-.019c-6.707-7.379-12.505-14.406-17.516-21.075-7.354-9.766-13.012-18.771-17.351-26.982-6.547-12.384-10.086-22.964-11.859-31.655-1.798-8.774-1.798-15.616-1.286-20.435.601-5.587 1.894-8.454 1.894-8.454s7.731-21.991 54.381-33.959c11.475-2.944 25.305-5.28 41.958-6.534 84.346-6.349 116.711 43.789 123.021 52.217 0 0 .006.007.013.02 0 .006.006.012.013.019.006.013.019.025.025.038 2.4 3.168 6.765 6.477 11.271 9.376 7.462 4.787 15.315 8.448 15.315 8.448-.218 4.615-1.581 7.795-2.816 9.767-1.107 1.766-2.119 2.572-2.119 2.572 2.944 13.101-4.102 17.978-4.281 18.106h-.007l.026.026c.141.102.781.588 1.792 1.395v.006c7.763 6.202 37.21 31.258 25.197 45.063Z"/>
  <path fill="#fff" d="M393.919 328.806c2.982 13.274-4.288 18.106-4.288 18.106-16.595-9.466-8.231-22.765-8.231-22.765-.793-11.296-8.665-24.71-9.158-25.542 6.342 8.422 26.611 17.862 26.611 17.862-.41 8.743-4.934 12.339-4.934 12.339Zm22.726 64.596c-16.768 19.276-46.899-2.88-46.899-2.88 33.869-1.632 21.901-41.524 21.702-42.183 7.763 6.202 37.21 31.258 25.197 45.063ZM284.376 439.68c-16.422 11.174-36.211-2.662-36.211-2.662 17.997-4.704 18.592-16.992 18.534-19.354-.006-.256-.019-.397-.019-.397 1.991.448 3.859.794 5.568 1.063h.026c6.112.966 10.144.921 10.144.921s.006 0 .019.007c8.403 3.673 9.53 15.264 1.939 20.422Z"/>
  <path fill="#fff" d="M357.605 389.286c-7.686 6.106-15.257 10.976-22.457 14.842-.301.166-.608.333-.909.493-21.395 11.308-39.424 13.894-47.411 14.476-.058 0-.116.007-.167.007-2.733.192-4.243.147-4.243.147-3.507-.25-6.899-.563-10.17-.922a248.2 248.2 0 0 1-5.548-.665c-46.989-6.157-67.706-22.202-67.706-22.202-63.578-69.945-46.138-108.62-46.138-108.62s7.731-21.991 54.381-33.959l82.464 42.349s-1.005 23.295 18.33 38.514c19.334 15.225 20.877 29.006 20.877 29.006 5.657 22.969 28.697 26.534 28.697 26.534Z"/>
  <path fill="#000072" d="M299.07 300.621c-4.108-1.536-6.572-1.024-6.572-1.024-8.708 20.434-29.533 28.453-42.447 31.529-5.304 1.263-8.419 6.689-6.924 11.932 6.397 22.446-7.506 34.707-7.506 34.707s-2.746-5.069-14.541-9.325c-5.501-1.981-9.426-4.112-12.049-5.822-2.237-1.458-5.191-.74-6.651 1.496-5.251 8.045-14.632 9.953-20.921 10.253-7.354-9.767-13.011-18.772-17.35-26.983.325-2.541.906-4.949 1.583-7.114 1.778-5.692-.085-11.931-4.768-15.62a47.008 47.008 0 0 1-8.673-8.92c-1.799-8.775-1.799-15.616-1.287-20.435 24.519-4.506 76.659-13.216 100.839-10.644 31.722 3.375 46.807 15.586 47.267 15.97Zm58.535 88.665-.083.064c-7.795 6.074-15.302 10.919-22.374 14.778-.301.166-.608.333-.909.493-21.888 11.75-39.411 14.08-47.411 14.477-.058 0-.115.006-.167.006-2.944.141-4.55.013-4.55.013l.307.134s.007 0 .019.007c8.404 3.673 9.53 15.264 1.94 20.422-4.352 2.963-8.948 4.166-13.345 4.333 6.132-4.653 11.444-10.131 9.639-14.195-3.296-7.417-8.969-3.974-12.461-9.179-1.378-2.055-3.566-3.432-6.026-3.685-3.26-.336-8.122-1.028-14.019-2.458 0 0 32.196 1.216 66.193-12.442 9.919-3.984 16.02-14.185 14.41-24.752-.624-4.096-.756-8.974.141-14.55-.001 0 4.012 22.01 28.696 26.534Zm-126.618 20.755s-19.897 2.215-32.243-5.049c-.448-5.395.218-9.338.25-9.523 0 0 8.954 8.851 31.993 14.572Zm150.484-21.984s-.288 3.879-4.647 6.797c-4.32-2.304-7.078-4.333-7.078-4.333s2.675.308 11.725-2.464Zm35.174 5.344c-7.104 8.167-16.602 8.896-25.191 7.028 5.952-2.01 12.374-2.268 18.202-9.908 7.951-10.42-19.117-42.598-20-43.583.141.102.781.588 1.792 1.395v.006c7.763 6.202 37.21 31.258 25.197 45.062ZM381.4 324.147c-1.44-12.781-8.48-24.435-9.132-25.504 2.4 3.168 6.764 6.477 11.27 9.376.717 10.183-2.138 16.128-2.138 16.128Zm12.518 4.659c2.944 13.101-4.102 17.978-4.281 18.106h-.007l-5.741-4.128s7.764-4.819 10.029-13.978Z" opacity=".3"/>
  <path fill="#000072" d="M269.892 446.635c-10.537 0-19.674-5.263-22.396-6.996-19.29 1.503-33.492-2.57-42.215-12.108-10.396-11.367-9.518-26.717-8.988-31.238-26.2-29.024-41.92-56.232-46.723-80.879-3.545-18.196.398-28.324.904-29.517.924-2.481 14.893-35.807 98.531-42.101 34.757-2.617 64.943 3.876 89.729 19.291 19.821 12.327 30.543 27.093 34.58 32.652a149 149 0 0 0 .95 1.298c5.848 7.818 25.473 17.017 25.671 17.109a2.562 2.562 0 0 1 1.477 2.441c-.329 6.994-3.086 11.166-4.715 13.041 1.625 8.861-1.026 14.257-3.221 17.041 6.933 5.574 26.954 22.826 28.481 37.289.453 4.288-.684 8.03-3.377 11.125-7.585 8.717-18.811 10.978-32.463 6.542-8.266-2.686-14.967-7.018-17.147-8.517-5.32.127-8.959-.535-10.821-.998-30.505 23.478-56.641 28.47-68.878 29.425 1.494 2.04 2.433 4.49 2.684 7.162.493 5.252-1.802 10.151-6.138 13.1-5.249 3.571-10.757 4.838-15.925 4.838Zm-21.724-12.18c.523 0 1.035.16 1.466.462.182.127 18.566 12.674 33.303 2.646 2.77-1.886 4.236-5.022 3.92-8.389-.319-3.395-2.361-6.229-5.463-7.578l-.274-.118a2.56 2.56 0 0 1 1.192-4.912c.322.026 33.482 2.126 73.72-29.295a2.56 2.56 0 0 1 2.474-.378c.023.007 3.841 1.349 11.14 1.072a2.582 2.582 0 0 1 1.615.496c.282.207 28.437 20.522 43.455 3.261 1.746-2.006 2.449-4.37 2.147-7.224-1.575-14.934-28.5-35.336-28.772-35.541a2.557 2.557 0 0 1 .12-4.176c.207-.148 5.725-4.203 3.205-15.41a2.56 2.56 0 0 1 .904-2.565c.114-.096 3.094-2.665 3.835-8.795-5.058-2.482-20.384-10.408-25.995-17.909-.28-.373-.61-.828-.993-1.357-33.496-46.126-83.627-52.561-119.782-49.844-42.558 3.203-65.923 13.641-78.029 21.834-12.977 8.782-16.067 16.892-16.096 16.974a2.575 2.575 0 0 1-.07.176c-.068.157-4.027 9.579-.486 27.113 3.309 16.385 14.008 43.346 46.18 78.741.534.587.764 1.387.628 2.167-.029.164-2.79 16.905 7.575 28.201 7.731 8.427 20.806 11.912 38.859 10.358.076-.008.149-.01.222-.01Z"/>
  <path fill="#000072" d="M374.369 297.189c.648 1.109 1.146 2.134 1.662 3.213.514 1.063.962 2.154 1.407 3.242.43 1.094.846 2.193 1.228 3.302.363 1.118.731 2.229 1.035 3.363.629 2.257 1.135 4.548 1.454 6.862.345 2.308.391 4.664.247 6.975-.74-2.212-1.417-4.369-2.242-6.474-.802-2.107-1.633-4.186-2.61-6.201-.455-1.017-.974-2.011-1.482-3a85.344 85.344 0 0 0-1.577-2.94c-.551-.964-1.124-1.915-1.691-2.86a71.678 71.678 0 0 0-1.743-2.722l4.312-2.76Zm13.746 51.786c-.459-.377-.869-.823-1.267-1.282a18.468 18.468 0 0 1-1.131-1.468 15.06 15.06 0 0 1-1.021-1.621 10.909 10.909 0 0 1-.807-1.908c.737 0 1.417.075 2.063.199.643.13 1.26.291 1.851.489.6.186 1.176.403 1.739.64.559.242 1.106.501 1.604.826l-3.031 4.125Zm-30.798 42.857a21.835 21.835 0 0 1-1.481-.238 22.454 22.454 0 0 1-1.374-.299 33.268 33.268 0 0 1-2.673-.764 37.32 37.32 0 0 1-5.118-2.101 35.596 35.596 0 0 1-9.002-6.372c-2.642-2.578-4.791-5.625-6.39-8.883-1.526-3.296-2.419-6.857-2.37-10.422 1.557 3.205 3.078 6.22 4.905 9 .945 1.367 1.904 2.707 3.016 3.917a36.18 36.18 0 0 0 3.55 3.371 36.21 36.21 0 0 0 8.34 4.997 42.416 42.416 0 0 0 4.581 1.652 40.415 40.415 0 0 0 3.51.869c.371.076.809.149 1.086.187l-.58 5.086Zm12.27-3.864c.882.061 1.893.091 2.858.138.977.035 1.958.045 2.946.053 1.989.02 3.919-.145 6.081-.105-.778.751-1.667 1.362-2.593 1.868-.93.5-1.895.931-2.873 1.328-.977.397-1.975.738-2.983 1.047a24.15 24.15 0 0 1-1.527.43c-.523.129-1.013.253-1.593.349l-.316-5.108Zm-87.17 33.841a38.212 38.212 0 0 1-4.099-.5 46.26 46.26 0 0 1-4.018-.871c-1.329-.351-2.647-.753-3.936-1.265-1.285-.511-2.547-1.121-3.681-1.906 1.375.082 2.706.062 4.026.045 1.317-.015 2.635-.092 3.941-.147l7.768-.476v5.12h-.001Zm-81.489-28.025c.099.099.38.368.604.562l.743.64c.523.423 1.054.84 1.608 1.249.538.423 1.136.79 1.694 1.2l1.764 1.142c2.384 1.493 4.92 2.821 7.512 4.062l1.957.919 1.989.867c.661.299 1.335.566 2.015.824.675.27 1.35.543 2.022.834 1.355.551 2.718 1.098 4.071 1.716 1.364.58 2.733 1.181 4.084 1.925-1.527.078-3.037.013-4.55-.074a63.795 63.795 0 0 1-4.475-.635c-1.471-.321-2.947-.639-4.393-1.074l-2.181-.63c-.727-.213-1.441-.476-2.159-.723-2.869-1.007-5.702-2.186-8.415-3.684l-2.015-1.172c-.656-.432-1.318-.84-1.957-1.312a28.425 28.425 0 0 1-1.897-1.459c-.31-.273-.617-.532-.92-.825-.318-.308-.572-.548-.969-.997l3.868-3.355Zm46.449 40.796 1.124-.294 1.201-.325a49.834 49.834 0 0 0 2.426-.721c.81-.262 1.592-.58 2.422-.888.819-.325 1.632-.685 2.565-1.097-.19.992-.645 1.91-1.203 2.74-.566.823-1.253 1.544-1.975 2.219a20.146 20.146 0 0 1-2.324 1.817c-.412.265-.826.53-1.263.761-.444.245-.847.445-1.394.659l-1.579-4.871Z"/>
  <path fill="#FC9340" d="M160.658 161.331s-.282-.576-.806-1.606c-3.764-7.437-20.128-38.407-34.042-44.16 0 0 13.907-10.797 32.518-1.523 8.557 4.262 18.106 12.768 27.757 28.505 0 0 4.276 21.523-25.427 18.784Z"/>
  <path fill="#000072" d="M160.658 161.331s-.282-.576-.806-1.606c9.196-16.819 3.596-34.951-1.524-45.683 8.557 4.262 18.106 12.768 27.757 28.505 0 0 4.275 21.523-25.427 18.784Z" opacity=".3"/>
  <path fill="#000072" d="M165.63 164.133a56.38 56.38 0 0 1-5.209-.252 2.564 2.564 0 0 1-2.069-1.432c-.185-.384-18.763-38.417-33.52-44.52a2.558 2.558 0 0 1-.593-4.388c.419-.325 10.405-7.919 24.972-5.265 14.092 2.568 27.234 13.648 39.058 32.931.158.259.27.543.329.84.071.362 1.695 8.963-4.14 15.439-3.981 4.42-10.301 6.647-18.828 6.647Zm-3.322-5.236c8.716.593 14.876-1.018 18.315-4.802 3.526-3.879 3.19-9.158 3.011-10.653-10.924-17.664-22.775-27.793-35.234-30.108-7.576-1.408-13.766.51-17.422 2.206 13.85 9.623 28.098 36.918 31.33 43.357Z"/>
  <path fill="#FF6C6C" d="m160.658 161.331-25.363 43.533-1.6 2.752s-.538-.762-1.402-2.214c0 0 0-.007-.006-.013-5.223-8.743-22.426-42.432-8.352-86.938.755-2.406 2.771-4.006 5.03-4.409a6.333 6.333 0 0 1 4.487.832c6.758 4.147 17.158 15.526 27.206 46.457Z"/>
  <path fill="#000072" d="m160.658 161.331-25.364 43.533c-1.881.352-3.001.538-3.001.538s0-.007-.007-.013c-.222-.507-6.958-16.051 5.865-33.529.793-1.08.954-2.503.361-3.704-1.454-2.943-3.471-9.128.149-16.47 0 0-6.208-4.934-2.093-16.761 2.611-7.501-1.645-16.199-7.603-20.883a6.33 6.33 0 0 1 4.486.832c6.759 4.147 17.159 15.526 27.207 46.457Z" opacity=".3"/>
  <path fill="#FC9340" d="M159.551 158.009c-5.197 3.444-11.949 10.791-11.949 10.791a14.33 14.33 0 0 1-1.709-.966c-8.973-5.953-1.197-16.967-1.197-16.967-6.073-4.525-4.32-12.448-4.32-12.448 2.829-1.306 5.293-1.408 7.22-1.062 2.764.486 4.416 1.875 4.416 1.875 2.502 4.934 7.539 18.777 7.539 18.777Z"/>
  <path fill="#000072" d="M147.601 170.721a1.91 1.91 0 0 1-.837-.192c-3.642-1.765-5.917-4.317-6.76-7.586-1.189-4.608.897-9.338 2.2-11.683-5.389-5.258-3.781-12.906-3.704-13.253a1.922 1.922 0 0 1 1.069-1.329c7.91-3.659 13.449.891 13.68 1.086.197.166.359.37.475.599 2.527 4.978 7.425 18.419 7.633 18.989a1.921 1.921 0 0 1-.745 2.258c-4.94 3.269-11.53 10.418-11.597 10.489-.372.407-.89.622-1.414.622Zm-5.489-30.946c-.198 1.986-.179 6.638 3.729 9.551a1.92 1.92 0 0 1 .421 2.646c-.036.051-3.737 5.414-2.538 10.024.465 1.792 1.614 3.243 3.494 4.41 1.915-2.002 6.155-6.279 10.02-9.121-1.292-3.492-4.74-12.682-6.742-16.783-.933-.626-4.043-2.327-8.384-.727Z"/>
  <path fill="#000072" d="M159.55 158.009c-5.196 3.444-11.948 10.791-11.948 10.791a14.116 14.116 0 0 1-1.709-.967c6.304-11.411 4.377-22.918 1.702-30.476 2.765.486 4.416 1.875 4.416 1.875 2.503 4.934 7.539 18.777 7.539 18.777Z" opacity=".3"/>
  <path fill="#000072" d="M133.694 210.175a2.558 2.558 0 0 1-2.093-1.087c-.278-.394-6.849-9.842-11.41-25.874-4.196-14.751-7.377-38.094 1.3-65.536a8.985 8.985 0 0 1 5.458-5.733 8.927 8.927 0 0 1 7.839.746c7.269 4.456 18.081 16.374 28.303 47.85a2.558 2.558 0 0 1-.222 2.08l-26.964 46.283a2.561 2.561 0 0 1-2.101 1.268c-.037.003-.073.003-.11.003Zm-3.579-93.682c-.461 0-.926.083-1.374.251a3.887 3.887 0 0 0-2.366 2.479c-8.265 26.135-5.278 48.349-1.318 62.382 2.75 9.74 6.335 17.006 8.587 21.012l24.224-41.58c-9.625-29.175-19.299-40.023-25.755-43.98a3.81 3.81 0 0 0-1.998-.564Z"/>
  <path fill="#FF3B6A" d="M140.154 295.589s3.717 29.654 56.929 33.494 91.611-20.023 100.937-48.823c9.326-28.8-12.181-4.526-12.181-4.526s-54.775 56.167-145.685 19.855Z"/>
  <path fill="#000072" d="M298.513 266.182c-.379 1.762-.955 3.872-1.773 6.399-9.326 28.8-47.726 52.663-100.937 48.823-34.668-2.502-48.324-15.959-53.635-25.035-.672-.26-1.339-.509-2.014-.779 0 0 3.717 29.654 56.929 33.494 53.211 3.84 91.611-20.023 100.937-48.823 3.373-10.419 2.711-13.889.493-14.079Z" opacity=".3"/>
  <path fill="#000072" d="M208.295 332.051c-3.751 0-7.552-.137-11.398-.416-22.719-1.64-39.569-8.02-50.08-18.967-8.075-8.408-9.161-16.425-9.203-16.762a2.56 2.56 0 0 1 3.49-2.695c46.08 18.406 82.449 12.205 104.844 3.762 23.694-8.933 37.221-22.19 38.024-22.99 5.185-5.844 12.244-12.268 16.541-9.809 3.24 1.851 3.224 6.74-.058 16.874-4.958 15.315-17.482 28.857-35.262 38.133-16.267 8.485-35.756 12.87-56.898 12.87Zm-64.106-32.171c1.156 2.602 3.162 6.025 6.599 9.529 6.629 6.759 20.074 15.216 46.478 17.12 24.577 1.774 47.248-2.337 65.557-11.888 16.583-8.651 28.217-21.141 32.761-35.171 2.2-6.797 2.302-9.596 2.192-10.62-1.941.71-6.393 4.486-10.021 8.581-.027.031-.055.06-.083.09-.575.59-14.379 14.557-39.676 24.149-14.833 5.626-30.546 8.551-46.703 8.694-18.573.166-37.745-3.359-57.104-10.484Z"/>
  <path fill="#FF3B6A" d="M158.546 373.792c7.955-6.586 6.169-13.165 10.15-28.39 2.227-8.532 7.431-13.223 11.571-15.706 3.245-1.939 5.844-2.522 5.844-2.522 8.038-3.993 15.36 3.283 15.36 3.283 2.745 54.58-42.925 43.335-42.925 43.335Z"/>
  <path fill="#000072" d="M158.546 373.792c21.314-2.118 30.173-15.26 33.476-22.506a8.351 8.351 0 0 0-.447-7.774 18.767 18.767 0 0 1-.783-1.431c-1.33-2.704-3.194-5.12-5.541-7.009-2.398-1.929-3.976-3.855-4.984-5.376 3.245-1.939 5.844-2.522 5.844-2.522 8.038-3.993 15.36 3.283 15.36 3.283 2.745 54.58-42.925 43.335-42.925 43.335Z" opacity=".3"/>
  <path fill="#fff" d="M173.176 347.321c2.227-8.531 7.431-13.222 11.571-15.705 3.245-1.939 5.844-2.522 5.844-2.522 2.852-1.417 5.612-1.412 7.989-.819-2.865-1.753-7.53-3.554-12.469-1.101 0 0-2.599.583-5.844 2.522-4.14 2.483-9.344 7.174-11.571 15.705-3.981 15.226-2.195 21.805-10.15 28.391 0 0 2.25.553 5.716.818 6.534-6.244 5.155-12.912 8.914-27.289Z" opacity=".7"/>
  <path fill="#000072" d="M167.904 377.327c-5.573 0-9.612-.96-9.971-1.049a2.563 2.563 0 0 1-1.019-4.459c4.82-3.989 5.482-7.726 6.8-15.169.597-3.368 1.273-7.185 2.503-11.894 4.022-15.39 16.768-19.406 19.015-20 9.461-4.482 17.695 3.537 18.043 3.883a2.56 2.56 0 0 1 .753 1.687c.923 18.371-3.4 31.639-12.849 39.434-7.448 6.144-16.496 7.567-23.275 7.567Zm-4.079-5.334c5.917.53 16.285.281 24.122-6.205 7.939-6.568 11.642-18.049 11.013-34.135-1.776-1.446-6.626-4.713-11.71-2.186a2.59 2.59 0 0 1-.571.203c-.488.113-11.996 2.934-15.51 16.379-1.179 4.511-1.835 8.22-2.415 11.493-1.02 5.768-1.827 10.317-4.929 14.451Z"/>
  <path fill="#000072" d="M193.196 327.56c-.328.412-.707.96-1.063 1.447a82.122 82.122 0 0 0-1.056 1.544c-.681 1.047-1.361 2.103-1.972 3.192-1.242 2.17-2.358 4.416-3.179 6.751-.178.588-.402 1.171-.564 1.764-.142.594-.35 1.189-.446 1.792l-.168.906-.085.463-.079.527a22.331 22.331 0 0 1-.469 2.053 21.461 21.461 0 0 1-3.704 7.255c.486-2.661.993-5.216 1.172-7.72.11-1.261.043-2.397.119-3.887.077-1.407.264-2.802.552-4.173.571-2.744 1.519-5.37 2.675-7.88a42.53 42.53 0 0 1 1.914-3.675c.344-.599.712-1.185 1.089-1.769.391-.594.762-1.129 1.239-1.757l4.025 3.167Z"/>
  <path fill="#FF3B6A" d="M237.055 373.958c-.788 2.381-1.434 3.808-1.434 3.808-2.746-13.849-9.6-13.849-25.786-24.134-16.179-10.285-12.755-24.551-12.755-24.551 1.92-4.659 6.861-3.974 6.861-3.974 6.24.698 11.456 1.958 15.789 3.648 26.009 10.125 20.518 35.539 17.325 45.203Z"/>
  <path fill="#000072" d="M237.055 373.958c-.788 2.381-1.434 3.808-1.434 3.808-2.746-13.849-9.6-13.849-25.786-24.134-16.179-10.285-12.755-24.551-12.755-24.551 1.92-4.659 6.861-3.974 6.861-3.974 6.24.698 11.456 1.958 15.789 3.648a20.967 20.967 0 0 1-2.907 6.729c-2.796 4.223-1.956 9.841 2.006 12.995 7.481 5.954 17.076 15.419 18.226 25.479Z" opacity=".3"/>
  <path fill="#000072" d="M235.62 380.329a2.558 2.558 0 0 1-2.512-2.062c-1.86-9.395-5.554-11.469-14.479-16.479-2.931-1.645-6.253-3.51-10.166-5.997-17.524-11.138-14.027-26.652-13.87-27.307a2.59 2.59 0 0 1 .122-.377c2.104-5.111 7.134-5.863 9.537-5.542 16.787 1.875 28.221 7.972 33.987 18.121 9.361 16.481.108 37.266-.29 38.143a2.559 2.559 0 0 1-2.329 1.5Zm-36.086-50.467c-.315 1.682-1.855 13.01 11.675 21.609 3.795 2.412 7.051 4.241 9.925 5.853 6.957 3.904 11.616 6.519 14.518 12.281 1.775-6.906 3.136-17.609-1.877-26.411-4.918-8.637-15.051-13.865-30.12-15.545a.814.814 0 0 1-.069-.009c-.464-.051-2.926-.201-4.052 2.222Z"/>
  <path fill="#000072" d="M199.712 324.296c1.529.646 2.866 1.333 4.244 2.078a58.332 58.332 0 0 1 4.008 2.352 67.082 67.082 0 0 1 7.466 5.515c1.158 1.036 2.31 2.067 3.377 3.201 1.111 1.077 2.092 2.297 3.077 3.486 1.871 2.477 3.408 5.235 4.274 8.178-1.998-2.346-3.982-4.489-6.133-6.481-2.18-1.958-4.457-3.777-6.873-5.416a87.187 87.187 0 0 0-7.524-4.468 107.016 107.016 0 0 0-3.905-1.96 79.06 79.06 0 0 0-3.919-1.734l1.908-4.751Z"/>
  <path fill="#FF3B6A" d="M214.36 331.737c-5.619 9.601-17.28.82-17.28.82-12.07 2.278-16.563-3.047-18.048-8.896-.205-.807-.32-1.62-.345-2.413-.25-5.946 4.14-11.328 10.272-12.333 13.836-2.266 21.92 3.123 25.203 9.677 2.278 4.55 2.24 9.657.198 13.145Z"/>
  <path fill="#000072" d="M214.36 331.738c-5.619 9.6-17.28.819-17.28.819-12.07 2.278-16.563-3.047-18.048-8.896-.205-.807-.32-1.62-.345-2.413 1.093 1.545 2.933 3.316 5.987 4.581 2.338.966 5.045.015 6.173-2.248.29-.582.65-1.191 1.094-1.789 0 0 15.987 13.28 22.221-3.2 2.278 4.55 2.24 9.658.198 13.146Z" opacity=".3"/>
  <path fill="#fff" d="M183.512 324.941c-.205-.807-.32-1.62-.345-2.413-.25-5.946 4.14-11.328 10.272-12.333 4.316-.707 8.073-.668 11.298-.082-4.057-1.638-9.285-2.26-15.778-1.198-6.132 1.005-10.522 6.387-10.272 12.333.025.793.14 1.606.345 2.413 1.122 4.417 3.961 8.532 10.48 9.303-3.435-1.717-5.179-4.789-6-8.023Z" opacity=".7"/>
  <path fill="#000072" d="M206.948 338.783c-4.43 0-8.622-2.345-10.452-3.526-14.325 2.285-18.644-5.835-19.947-10.964-.995-3.914-.311-7.949 1.924-11.363a14.946 14.946 0 0 1 10.07-6.539c11.736-1.923 21.416 1.272 26.56 8.764 3.852 5.613 4.442 12.796 1.468 17.874-1.787 3.051-4.267 4.914-7.369 5.536-.752.151-1.507.218-2.254.218Zm-9.867-8.786a2.56 2.56 0 0 1 1.54.514c1.454 1.086 6.025 3.754 9.587 3.03 1.626-.329 2.915-1.344 3.945-3.101 1.961-3.349 1.439-8.443-1.271-12.39-2.336-3.402-8.234-8.786-21.511-6.61a9.823 9.823 0 0 0-6.615 4.292c-1.44 2.199-1.882 4.791-1.246 7.298 1.608 6.329 6.547 8.623 15.097 7.01.158-.028.317-.043.474-.043Z"/>
  <path fill="#000072" d="M195.329 334.423c-.257-.325-.389-.545-.554-.81-.159-.254-.301-.508-.443-.761a21.442 21.442 0 0 1-.76-1.536 20.144 20.144 0 0 1-1.11-3.156 17.482 17.482 0 0 1-.557-3.213c-.107-1.065-.054-2.132.033-3.156.337.984.699 1.927 1.196 2.8.47.878 1.02 1.695 1.629 2.449a17.143 17.143 0 0 0 3.03 2.969c.183.135.365.272.548.392.17.114.389.261.493.291l-3.505 3.731Z"/>
  <path fill="#FC9340" d="M293.439 206.784c2.912 13.491 3.392 23.04 3.065 32.877a74.496 74.496 0 0 1-4.499 23.187c-8.371 22.931-27.706 40.857-52.442 46.675-51.193 12.032-104.876-6.656-113.062-29.933-1.862-5.286-2.944-10.195-3.456-14.701-1.389-12.211 1.421-21.497 4.346-27.488.416-.857.806-1.734 1.165-2.617 2.169-5.261 3.296-10.912 3.168-16.621-.896-40.512 22.598-57.913 34.169-64.013 3.763-1.984 6.266-2.771 6.266-2.771l-.007-.006c-9.254-12.442-4.832-23.853-4.832-23.853 17.76-6.08 31.943 6.278 34.023 8.218a.463.463 0 0 1 .077.076 3.451 3.451 0 0 1 .185.173c-3.565-15.501 3.981-24.55 3.981-24.55 13.382 4.973 20.243 14.208 23.686 21.408 2.739 5.709 3.328 10.137 3.328 10.137 3.744-11.033 13.28-22.515 18.976-28.704 3.565-3.872 7.661-7.232 12.263-9.792 10.675-5.945 18.72-5.286 24.492.007h.007c.192.179.384.358.569.544 7.674 7.629 11.143 23.725 11.309 43.289.359 41.421-6.777 58.458-6.777 58.458Z"/>
  <path fill="#fff" d="M292.005 262.848c-8.371 22.931-27.705 40.858-52.441 46.675-51.194 12.032-104.877-6.656-113.063-29.933-6.905-19.616-3.11-33.984.89-42.188.416-.858.806-1.735 1.165-2.618 3.436 5.504 11.603 13.632 28.755 9.683 25.03-5.76 16.595-51.43 30.995-56.986 14.4-5.555-3.098 44.948 30.957 58.029 31.309 12.032 61.664-30.361 72.742 17.338ZM162.839 203.65c.11 1.22-1.236 2.024-2.248 1.334-2.072-1.416-5.292-2.936-8.286-1.523-4.937 2.331-6.193-11.123 2.331-9.394 6.36 1.289 7.904 6.253 8.203 9.583Z"/>
  <path fill="#fff" d="M217.039 202.966c-.119 1.113 1.348 1.848 2.45 1.217 2.259-1.293 5.77-2.68 9.034-1.39 5.383 2.129 6.752-10.156-2.542-8.577-6.933 1.177-8.615 5.71-8.942 8.75Z"/>
  <path fill="#FF6C6C" d="M294.085 204.979c-.403 1.216-.646 1.805-.646 1.805s-4.8-32.672-33.728-51.539c0 0 9.344-40.269 28.62-50.752h.007c.192.179.384.358.569.544 7.674 7.628 11.143 23.724 11.309 43.289.295 33.741-4.39 51.303-6.131 56.653Z"/>
  <path fill="#000072" d="M174.864 248.1s1.097 9.207-5.074 12.695c-6.17 3.488-13.317 1.637-15.744-3.781 0 0-5.44 11.571 10.861 17.074 0 0 3.239 8.914 11.193 15.154 0 0-2.258 10.83 7.266 12.082 7.648 1.004 12.698-1.858 14.391-3.025a3.845 3.845 0 0 1 1.453-.6c3.563-.695 17.39-4.803 15.602-26.575a4.856 4.856 0 0 1 .976-3.322c1.378-1.821 3.39-5.369 2.691-9.947-.223-1.462-1.975-2.125-3.114-1.182-3.642 3.017-11.208 8.261-18.489 6.924-10.08-1.851-9.576-11.314-10.617-16.731-1.039-5.417-11.395 1.234-11.395 1.234Z" opacity=".3"/>
  <path fill="#000072" d="M293.439 206.784c2.912 13.491 3.392 23.04 3.065 32.877a74.468 74.468 0 0 1-4.499 23.187c-8.371 22.931-27.705 40.858-52.441 46.675-51.194 12.032-104.877-6.656-113.063-29.933-1.862-5.286-2.944-10.195-3.456-14.7 7.258 13.376 25.696 33.676 71.463 37.843 0 0 2.624.124 6.672.08 16.041-.174 28.78-13.231 29.027-29.271.176-11.466 4.804-24.737 21.63-34.016 0 0 49.658-27.443 7.872-84.281.002 0 26.543 17.152 33.73 51.539Zm-93.921-43.974c-19.526 5.312-29.267-2.656-33.625-8.66 3.763-1.984 6.265-2.771 6.265-2.771 12.378 12.787 27.36 11.431 27.36 11.431Z" opacity=".3"/>
  <path fill="#fff" d="M199.518 162.81c-20.16-.608-27.36-11.431-27.36-11.431l-.006-.006c-9.255-12.442-4.832-23.853-4.832-23.853 17.76-6.08 31.942 6.278 34.022 8.218a.427.427 0 0 1 .077.076c.096.084.154.141.179.167-15.323-9.219-25.4-6.046-28.458-4.652a1.888 1.888 0 0 0-1.082 1.598c-1.5 21.511 27.46 29.883 27.46 29.883Z" opacity=".7"/>
  <path fill="#000072" d="M232.6 142.982s-2.675 5.556-3.053 11.072c0 0-5.164-9.222-.275-21.209 2.739 5.709 3.328 10.137 3.328 10.137Z" opacity=".3"/>
  <path fill="#fff" d="M288.907 105.037c-38.048-.781-59.36 49.017-59.36 49.017.788-6.067 3.053-11.072 3.053-11.072 3.744-11.033 13.28-22.515 18.976-28.704 3.565-3.872 7.661-7.232 12.263-9.792 10.675-5.945 18.72-5.286 24.492.007h.007c.192.179.384.358.569.544Z" opacity=".7"/>
  <path fill="#000072" d="M294.085 204.979c-.403 1.216-.646 1.805-.646 1.805s-4.8-32.672-33.728-51.539c0 0 9.344-40.269 28.62-50.752h.007c.192.179.384.358.569.544 0 0-10.361 18.329-12.966 25.6 0 0 11.827-1.78 10.08 6.963-1.192 5.94-2.424 9.08-3.092 10.482a1.48 1.48 0 0 0 .282 1.671c2.249 2.32 8.222 10.166 3.015 24.084 0 0 8.608 17.645 7.859 31.142Z" opacity=".3"/>
  <path fill="#fff" d="M177.279 154.579s-2.503.787-6.266 2.771a62.876 62.876 0 0 0-18.164 14.503c-.488.568-.677 1.354-.455 2.069.799 2.576-.11 7.334-2.539 12.209-2.574 5.148-6.06 8.859-8.647 9.496a2.262 2.262 0 0 0-1.632 1.621c-1.881 6.945-2.935 14.93-2.732 24.115.128 5.709-.999 11.36-3.168 16.621-.359.883-.749 1.76-1.165 2.617-2.925 5.991-5.735 15.277-4.346 27.488.512 4.506 1.594 9.415 3.456 14.701 2.055 5.831 6.963 11.379 13.971 16.224-9.74-5.536-16.569-12.262-19.091-19.424-1.862-5.286-2.944-10.195-3.456-14.701-1.389-12.211 1.421-21.497 4.346-27.488.416-.857.806-1.734 1.165-2.617 2.169-5.261 3.296-10.912 3.168-16.621-.896-40.512 22.598-57.914 34.169-64.013 3.763-1.984 6.266-2.771 6.266-2.771.006.006 5.12 3.2 5.12 3.2Z" opacity=".7"/>
  <path fill="#000072" d="M206.545 315.811c-13.854 0-27.684-1.861-40.358-5.557-22.059-6.432-37.799-17.578-42.104-29.816-7.105-20.201-3.377-35.163 1.002-44.156 2.802-5.755 4.213-12 4.08-18.06-.631-28.648 10.825-45.946 20.546-55.411 7.241-7.052 14.524-10.885 18.537-12.645-7.519-12.323-3.499-23.088-3.312-23.571a2.554 2.554 0 0 1 1.557-1.498c13.704-4.69 25.285.646 31.66 4.901-.759-12.55 5.172-19.846 5.465-20.198a2.563 2.563 0 0 1 2.859-.761c16.576 6.157 23.695 18.363 26.661 26.256 4.744-9.206 12.059-17.86 16.554-22.747 3.9-4.24 8.241-7.705 12.899-10.298 9.418-5.244 17.54-5.956 24.137-2.118 12.979 7.553 15.89 30.367 16.046 48.175.325 37.114-5.279 54.857-6.674 58.687 3.069 14.52 3.239 24.321 2.962 32.751-1.146 34.667-25.372 64.384-58.914 72.269-10.789 2.536-22.205 3.797-33.603 3.797Zm-72.262-97.703c.151 6.871-1.437 13.93-4.594 20.414-3.951 8.116-7.294 21.682-.775 40.216 3.702 10.525 18.533 20.718 38.707 26.6 22.28 6.496 48.288 7.111 71.355 1.691 31.295-7.357 53.898-35.094 54.968-67.454.273-8.246.098-17.86-3.008-32.25a2.568 2.568 0 0 1 .141-1.529c.067-.161 6.929-17.226 6.577-57.445-.204-23.295-4.999-38.848-13.5-43.796-4.926-2.865-11.343-2.137-19.071 2.166-4.181 2.329-8.091 5.454-11.621 9.292-5.33 5.793-14.814 17.108-18.434 27.789a2.555 2.555 0 0 1-2.672 1.725 2.557 2.557 0 0 1-2.289-2.209c-.115-.834-3.004-20.09-23.516-28.747-1.743 2.957-4.9 10.175-2.445 20.84a2.56 2.56 0 0 1-4.304 2.385c-.556-.551-13.566-13.206-30.418-8.249-.734 2.932-1.917 11.234 4.83 20.305.494.664.636 1.528.382 2.317a2.565 2.565 0 0 1-1.667 1.654c-.096.03-10.109 3.297-19.816 12.825-12.967 12.725-19.302 30.039-18.83 51.46Z"/>
  <path fill="#000072" d="m174.258 149.919.196.254c.071.099.167.205.254.31.171.211.351.428.543.639.364.431.785.838 1.189 1.25.84.806 1.709 1.6 2.647 2.325a35.558 35.558 0 0 0 6.067 3.841c.542.277 1.11.492 1.664.752l.839.381.864.315 1.741.644 1.79.528.901.281.918.208 1.851.439c1.244.278 2.511.436 3.795.715-.637.111-1.28.204-1.926.29-.647.073-1.299.215-1.951.229l-1.969.068-.992.018-.988-.058-1.988-.145c-.66-.082-1.317-.2-1.976-.311l-.992-.171-.978-.242c-.649-.172-1.308-.327-1.952-.533l-1.921-.667c-.641-.228-1.249-.537-1.878-.804-.632-.261-1.227-.599-1.835-.918-.611-.313-1.193-.678-1.774-1.048-.594-.352-1.152-.761-1.708-1.173-.567-.398-1.096-.853-1.628-1.303-.516-.475-1.038-.937-1.528-1.459a13.294 13.294 0 0 1-.734-.792c-.119-.141-.237-.273-.357-.429-.122-.156-.228-.283-.388-.507l4.204-2.927Zm29.108-15.793c.16.17.236.265.338.389.099.119.182.238.269.355.173.235.333.468.49.704.305.475.591.951.841 1.445.515.977.94 1.986 1.293 3.01.345 1.028.633 2.065.814 3.122.2 1.05.279 2.124.281 3.189l-1.952-2.433c-.628-.791-1.295-1.534-1.937-2.265a46.808 46.808 0 0 0-2.005-2.061 41.51 41.51 0 0 0-1.514-1.384l-.245-.201a1.645 1.645 0 0 0-.19-.151l3.517-3.719Zm31.616 9.797a54.33 54.33 0 0 1-1.157 2.488l-1.263 2.527c-.452.841-.835 1.703-1.315 2.553-.482.852-.993 1.702-1.696 2.565-.399-1.031-.565-2.068-.618-3.086-.054-1.021.028-2.02.102-3.024.096-.999.228-1.994.418-2.976.197-.989.416-1.933.772-2.932l4.757 1.885Zm54.737-37.273-.311.24-.364.286-.738.631c-.498.413-.968.906-1.462 1.342-.956.94-1.906 1.892-2.797 2.92-.936.977-1.771 2.062-2.644 3.107-.447.513-.827 1.089-1.243 1.63l-1.238 1.639c-3.196 4.462-5.963 9.271-8.429 14.241l-1.824 3.749-1.632 3.849-.82 1.927-.74 1.961-1.476 3.93c-.952 2.637-1.671 5.35-2.643 7.998-.881 2.678-1.921 5.318-3.659 7.862-.25-1.502-.287-2.973-.246-4.432.05-1.456.18-2.903.4-4.329.277-1.413.644-2.805.987-4.205l.52-2.097c.171-.701.339-1.402.563-2.089l1.256-4.148.633-2.074.754-2.037 1.517-4.075 1.727-4.003c2.413-5.289 5.19-10.458 8.618-15.245.887-1.176 1.736-2.379 2.682-3.516.961-1.125 1.88-2.281 2.923-3.348 1.004-1.094 2.094-2.123 3.199-3.14.578-.494 1.134-.991 1.75-1.461.623-.485 1.175-.91 1.975-1.427l2.762 4.314Z"/>
  <path fill="#000072" d="M290.931 207.306c-7.062-34.03-32.294-49.715-32.548-49.87l2.651-4.38c1.115.673 27.377 16.911 34.91 53.211l-5.013 1.039Zm-128.553 60.987s5.87 22.15 24.796 25.853c18.926 3.704 26.097-14.759 21.73-25.853 0 0-24.818 8.47-27.748-14.056-.002 0-1.546 16.304-18.778 14.056Z"/>
  <path fill="#000072" d="M191.919 297.185c-1.687 0-3.435-.174-5.236-.526-20.265-3.965-26.523-26.742-26.779-27.709a2.563 2.563 0 0 1 2.806-3.195c4.524.59 8.19-.196 10.894-2.335 4.343-3.437 4.998-9.375 5.005-9.434a2.566 2.566 0 0 1 2.512-2.304h.036c1.284 0 2.372.949 2.538 2.225.688 5.287 2.761 9.043 6.162 11.166 7.148 4.458 18.115.832 18.225.796a2.56 2.56 0 0 1 3.205 1.486c2.863 7.274 1.291 16.642-3.822 22.783-3.858 4.628-9.262 7.047-15.546 7.047Zm-25.858-26.123c2.437 6.016 8.828 18.072 21.605 20.572 8.448 1.652 13.29-1.682 15.863-4.773 3.411-4.096 4.804-10.266 3.657-15.441-4.293 1.006-13.147 2.284-20.018-1.989-2.669-1.659-4.745-3.953-6.215-6.854-.988 1.684-2.323 3.384-4.124 4.82-2.941 2.345-6.551 3.571-10.768 3.665Z"/>
  <path fill="#ED2E7A" d="M188.408 270.267s-22.3 10.92-11.418 24.497c8.332 10.392 19.245-.803 25.913-6.038 3.896-3.059 6.124-7.872 5.592-12.798-.027-.246-.06-.494-.1-.742.001 0-1.473-4.009-19.987-4.919Z"/>
  <path fill="#000072" d="M208.497 275.928a16.075 16.075 0 0 0-.1-.742s-.281-.758-2.117-1.69c-.759 3.199-2.638 6.103-5.297 8.19-6.668 5.234-17.581 16.43-25.912 6.036a17.176 17.176 0 0 1-1.036-1.44c-.225 2.64.562 5.497 2.956 8.48 8.331 10.393 19.244-.802 25.912-6.036 3.898-3.06 6.125-7.872 5.594-12.798Z" opacity=".3"/>
  <path fill="#000072" d="M184.902 301.591c-.397 0-.794-.019-1.192-.06-3.308-.339-6.242-2.078-8.718-5.166-3.078-3.84-4.167-7.893-3.239-12.046 2.169-9.709 14.983-16.084 15.529-16.351a2.57 2.57 0 0 1 1.251-.257c17.581.864 21.497 4.5 22.266 6.592.056.155.099.315.124.477.048.292.086.585.118.874.611 5.652-1.902 11.432-6.557 15.086-.731.574-1.515 1.223-2.342 1.905-4.611 3.809-10.828 8.946-17.24 8.946Zm4.06-28.732c-3.445 1.831-10.941 6.862-12.214 12.585-.577 2.593.157 5.118 2.24 7.718 1.609 2.007 3.325 3.079 5.246 3.276 4.69.489 10.447-4.27 14.648-7.74.862-.712 1.678-1.387 2.441-1.986 3.254-2.555 5.027-6.543 4.636-10.428-.925-.677-4.716-2.754-16.997-3.425Z"/>
  <path fill="#000072" d="M197.512 272.467c-.46.364-1.004.789-1.499 1.203-.501.425-1.009.846-1.5 1.284-.987.872-1.968 1.763-2.873 2.716a29.41 29.41 0 0 0-2.543 3.008 35.8 35.8 0 0 0-2.234 3.423c-.23-1.445.054-2.941.539-4.317l.415-1.015c.153-.331.326-.648.491-.973.162-.329.345-.641.529-.953.184-.311.362-.633.57-.926.78-1.224 1.674-2.357 2.622-3.44.474-.542.968-1.065 1.489-1.562.525-.51 1.02-.987 1.638-1.478l2.356 3.03Z" opacity=".6"/>
  <path fill="#000072" d="M183.938 251.867c-.014.112-.053.393-.07.608-.022.23-.038.467-.05.705-.022.476-.024.956-.013 1.434.016.957.131 1.902.311 2.814.347 1.833 1.068 3.502 2.103 4.909 1.035 1.416 2.463 2.519 4.117 3.383 1.651.865 3.589 1.367 5.583 1.773 3.948.767 7.99.5 11.495-1.271a16.284 16.284 0 0 0 2.502-1.569 39.343 39.343 0 0 0 2.295-1.97c1.513-1.399 2.982-2.917 4.62-4.639.066 2.418-.816 4.723-2.128 6.724-1.327 2.013-3.218 3.65-5.309 4.957-2.103 1.307-4.49 2.178-6.93 2.613-2.446.398-4.92.376-7.313.068a20.593 20.593 0 0 1-1.782-.283l-.883-.176-.896-.231a21.493 21.493 0 0 1-3.545-1.266c-2.321-1.064-4.519-2.707-6.135-4.851-1.649-2.121-2.636-4.663-3.094-7.176a20.441 20.441 0 0 1-.307-3.785c-.003-.629.05-1.254.112-1.882a20.1 20.1 0 0 1 .123-.946c.051-.334.097-.6.192-1.03l5.002 1.087Z"/>
  <path fill="#000072" d="M183.992 252.744c-.032.62-.078 1.063-.14 1.579-.067.495-.131.991-.232 1.477a25.898 25.898 0 0 1-.734 2.902c-.632 1.903-1.456 3.799-2.682 5.526a17.232 17.232 0 0 1-2.077 2.446 14.716 14.716 0 0 1-2.612 1.982c-1.907 1.103-4.054 1.781-6.156 1.923l-.783.055-.737.009c-.489.013-.982.004-1.48-.026a21.358 21.358 0 0 1-2.994-.327 15.105 15.105 0 0 1-2.981-.857 12.534 12.534 0 0 1-2.804-1.514c-1.742-1.249-3.209-2.998-3.87-4.984-.647-1.975-.617-4.12.345-5.921.88 1.797 1.669 3.271 2.545 4.558.437.638.886 1.227 1.394 1.751a7.701 7.701 0 0 0 1.727 1.31c.63.36 1.316.638 2.046.83.353.115.738.171 1.107.255.384.05.76.12 1.152.156a17 17 0 0 0 2.387.073c.403-.007.809-.03 1.22-.073l.612-.053.559-.085c1.481-.226 2.827-.72 4.002-1.481a11.03 11.03 0 0 0 3-3.048c.82-1.24 1.496-2.659 1.996-4.17.258-.753.48-1.529.657-2.315.088-.392.177-.785.251-1.178.072-.374.139-.826.174-1.104l5.108.304Z"/>
  <path fill="#FC9340" d="M282.283 169.248c-.46 1.926-1.222 3.981-2.348 6.169 0 0-9.095-12.633-20.224-20.172l4.844-15.283s3.904-2.17 7.853-3.373c2.567-.775 5.146-1.152 6.688-.263 3.904 2.266-3.155 13.306-3.155 13.306s9.421 6.976 6.342 19.616Z"/>
  <path fill="#000072" d="M282.283 169.248c-.46 1.926-1.222 3.981-2.348 6.169 0 0-9.095-12.633-20.224-20.172l4.844-15.284s3.904-2.169 7.853-3.372c-4.531 6.688-10.598 21.068 9.875 32.659Z" opacity=".3"/>
  <path fill="#000072" d="M279.935 177.335a1.919 1.919 0 0 1-1.558-.797c-.09-.125-9.034-12.454-19.742-19.701a1.917 1.917 0 0 1-.753-2.17l4.843-15.285c.149-.468.47-.862.9-1.1 1.934-1.073 11.817-6.286 16.433-3.613 1.001.578 1.683 1.517 1.973 2.711.858 3.529-2.016 9.135-3.623 11.894 3.213 3.187 10.629 12.684 3.236 27.023a1.918 1.918 0 0 1-1.709 1.038Zm-17.968-22.856c7.799 5.581 14.385 13.251 17.539 17.219 5.002-13.016-4.289-20.206-4.716-20.526a1.926 1.926 0 0 1-.469-2.573c1.949-3.053 4.472-8.271 3.975-10.312-.056-.231-.121-.27-.165-.294-1.743-1.009-7.419.878-11.982 3.289l-4.182 13.197Z"/>
  <path fill="#FC9340" d="m296.587 298.49-.006-.007c-.307-.16-10.278-5.44-21.568-8.672-3.712-1.062-7.565-1.907-11.264-2.278 0 0-5.722 2.035-10.016-1.997 0 0-13.274 5.914-15.879-8.122a80.615 80.615 0 0 1-.153-.876c-1.997-12.16-1.171-38.996 32.672-42.944a63.2 63.2 0 0 1 10.835-.333c12.263.659 24.192 4.806 34.458 11.821 12.16 8.313 24.877 22.028 30.4 41.075 8.025 27.686-49.479 12.333-49.479 12.333Z"/>
  <path fill="#fff" d="M292.805 274.432c-3.04 6.777-9.728 12.102-17.792 15.379-3.712-1.062-7.565-1.907-11.264-2.278 0 0-5.722 2.035-10.016-1.997 0 0-13.274 5.913-15.879-8.122-2.169-11.693-2.163-39.776 32.519-43.82l.109-.013c7.489-.862 14.886 2.505 19.184 8.699 5.03 7.248 9.298 18.435 3.139 32.152Z"/>
  <path fill="#000072" d="M296.581 298.483c-.307-.16-10.278-5.44-21.568-8.672-3.712-1.062-7.565-1.907-11.264-2.278 0 0-5.721 2.035-10.016-1.997 0 0-13.273 5.913-15.878-8.122a80.138 80.138 0 0 1-.154-.876c1.098.727 2.581 1.582 4.219 2.161 1.674.593 3.43-.546 3.686-2.304.183-1.263.66-2.872 1.74-4.72 0 0-.07 4.544 1.99 7.424 1.284 1.799 3.693 3.142 6.644 3.127 2.969-.016 5.242-2.613 5.136-5.58-.07-1.964.214-4.407 1.521-6.668 0 0 1.03 8.089 5.965 11.039 0 0 20.364 1.44 12.825-26.815 0 0 17.129 11.626 7.685 28.314-1.956 3.458-1.175 7.826 1.767 10.496a149.086 149.086 0 0 1 5.702 5.471Z" opacity=".3"/>
  <path fill="#fff" d="M272.933 241.274a63.2 63.2 0 0 1 10.835-.333c12.263.659 24.192 4.806 34.458 11.821 10.705 7.319 21.838 18.824 28.118 34.467a22.991 22.991 0 0 0-.278-1.072c-5.523-19.047-18.24-32.762-30.4-41.075-10.266-7.015-22.195-11.162-34.458-11.821a63.2 63.2 0 0 0-10.835.333c-33.843 3.948-34.669 30.784-32.672 42.944.051.3.102.595.154.876.458 2.468 1.25 4.308 2.237 5.682-1.75-12.612.001-37.991 32.841-41.822Z" opacity=".7"/>
  <path fill="#000072" d="M296.511 298.5c-2.864-.773-5.633-1.639-8.389-2.504-2.755-.863-5.477-1.757-8.227-2.533-1.373-.383-2.74-.779-4.12-1.105-1.369-.376-2.751-.656-4.121-.977a99.286 99.286 0 0 0-8.213-1.375h-.002l1.113-.133a12.65 12.65 0 0 1-1.7.422c-.534.097-1.07.158-1.609.197-1.08.071-2.184.017-3.284-.18a11.381 11.381 0 0 1-3.222-1.064c-1.043-.489-1.956-1.202-2.803-1.948l-.003-.001 2.793.48c-.353.154-.57.236-.846.34a20.014 20.014 0 0 1-2.372.709 18.588 18.588 0 0 1-3.319.47c-2.263.106-4.797-.287-7.007-1.618-2.226-1.308-3.814-3.429-4.75-5.532-.984-2.113-1.371-4.333-1.668-6.282a50.694 50.694 0 0 1-.327-12.151 39.196 39.196 0 0 1 1.033-6.069c.509-2.001 1.138-3.988 1.994-5.898 1.666-3.831 4.078-7.404 7.113-10.34.365-.382.758-.732 1.16-1.073.399-.343.792-.695 1.203-1.022.848-.616 1.661-1.291 2.557-1.827l1.321-.844 1.367-.75c.901-.526 1.855-.921 2.791-1.362 3.778-1.667 7.738-2.734 11.704-3.386a64.992 64.992 0 0 1 11.969-.838c8 .169 15.937 1.784 23.359 4.66a71.676 71.676 0 0 1 10.689 5.255c1.705 1.013 3.363 2.123 4.972 3.258a102.11 102.11 0 0 1 4.691 3.558c3.055 2.468 5.98 5.113 8.686 7.979a64.135 64.135 0 0 1 7.274 9.316c1.082 1.648 2.02 3.392 2.906 5.148l1.253 2.672c.372.912.704 1.84 1.055 2.754 1.317 3.695 2.173 7.536 2.488 11.389-1.39-3.617-2.945-7.077-4.734-10.383l-1.399-2.441-1.496-2.373c-.493-.791-1.074-1.53-1.597-2.298-.51-.777-1.097-1.505-1.663-2.243a85.322 85.322 0 0 0-15.762-15.727 96.538 96.538 0 0 0-4.54-3.281c-1.545-1.036-3.095-2.023-4.707-2.93a66.516 66.516 0 0 0-10.018-4.64c-6.898-2.557-14.218-3.933-21.54-3.983a63.873 63.873 0 0 0-10.916.879c-3.585.61-7.076 1.583-10.3 3.029-3.213 1.453-6.197 3.333-8.648 5.751-2.482 2.386-4.45 5.268-5.851 8.453-2.778 6.386-3.443 13.832-2.522 20.973.248 1.828.529 3.432 1.153 4.813.6 1.385 1.432 2.464 2.516 3.129 1.081.669 2.471 1.006 4.021.982a13.26 13.26 0 0 0 2.37-.264 14.751 14.751 0 0 0 1.769-.468c.174-.056.407-.143.494-.177a2.767 2.767 0 0 1 2.773.461l.02.018.002.001c.498.416.992.832 1.575 1.092.567.288 1.18.498 1.84.604a8.321 8.321 0 0 0 2.042.11c.35-.028.702-.065 1.045-.128.173-.029.342-.064.506-.105.145-.032.358-.096.391-.105l.246-.069c.287-.082.588-.098.867-.062h.001c3.044.312 6.004.955 8.884 1.765a83.809 83.809 0 0 1 8.389 3.009c2.711 1.18 5.385 2.417 7.952 3.861 2.561 1.451 5.053 3.038 7.328 4.952Z"/>
  <path fill="#000072" d="M252.101 287.447c-.125-.113-.187-.179-.262-.257a5.13 5.13 0 0 1-.209-.224 7.844 7.844 0 0 1-.377-.442c-.246-.293-.463-.595-.684-.892a18.77 18.77 0 0 1-1.16-1.859 18.442 18.442 0 0 1-1.639-3.951c-.384-1.357-.676-2.724-.734-4.104-.097-1.369.05-2.74.31-4.046.23.64.401 1.27.626 1.879.241.608.447 1.207.724 1.781a19.619 19.619 0 0 0 1.773 3.254 19.676 19.676 0 0 0 2.277 2.764c.412.418.852.802 1.28 1.174.223.175.439.358.662.515.11.084.22.158.325.23.054.037.108.076.154.102.046.029.107.07.107.058l-3.173 4.018Zm10.446-2.273.262-.15c.108-.068.215-.131.322-.205.215-.139.426-.292.624-.45a7.61 7.61 0 0 0 1.061-.999c.291-.347.511-.694.667-1.016.137-.324.19-.617.217-.908l.08-.432a2.54 2.54 0 0 1 3.834-1.694c.097.06.313.183.481.274l.556.287c.376.188.764.357 1.15.529.776.331 1.57.608 2.358.823 1.577.439 3.155.585 4.538.332 1.381-.258 2.578-.917 3.563-2.044.26-.261.47-.592.707-.896.196-.347.435-.656.605-1.037l.279-.549c.085-.189.151-.393.231-.588l.469-1.186c.492-1.623.863-3.324.859-5.081.073-.876-.027-1.76-.066-2.651-.041-.444-.122-.886-.179-1.333l-.096-.668-.146-.663c-.35-1.78-.962-3.514-1.563-5.272-.599-1.768-1.265-3.531-1.933-5.399 1.597 1.212 2.817 2.794 3.886 4.461 1.047 1.685 1.841 3.528 2.442 5.451 1.271 3.807 1.654 8.105.663 12.248-.55 2.03-1.244 4.114-2.713 5.973-.708.923-1.576 1.796-2.613 2.463a10.785 10.785 0 0 1-3.355 1.445c-2.363.577-4.696.365-6.812-.128a22.3 22.3 0 0 1-3.076-.99c-.494-.201-.98-.418-1.46-.655l-.72-.369c-.252-.137-.453-.245-.764-.435l3.915-2.125v.002a7.995 7.995 0 0 1-.658 2.894 9.91 9.91 0 0 1-1.458 2.267 12.818 12.818 0 0 1-1.787 1.692c-.314.248-.634.478-.967.696-.163.111-.336.215-.506.32-.189.11-.327.195-.593.332l-2.304-4.566Z"/>
  <path fill="#000072" d="M266.76 283.569c-.153-.122-.192-.167-.277-.244-.078-.071-.133-.131-.199-.198-.134-.131-.241-.26-.354-.39-.22-.263-.425-.521-.613-.786a12.88 12.88 0 0 1-1.006-1.621 17.3 17.3 0 0 1-1.345-3.406 17.95 17.95 0 0 1-.382-1.741 14.49 14.49 0 0 1-.219-1.74c-.052-.578-.015-1.167.002-1.741.051-.58.147-1.16.27-1.727.312.507.572 1.009.834 1.499.283.484.51.973.782 1.439a25.351 25.351 0 0 0 1.635 2.667c.6.823 1.238 1.587 1.916 2.262.337.338.686.654 1.032.939.171.145.351.277.521.396l.247.165c.037.022.082.056.11.068.022.009.086.051.044.011l-2.998 4.148Zm-109.244-44.995c5.715-.058 10.286-6.189 10.21-13.694-.076-7.506-4.77-13.543-10.485-13.485-5.715.057-10.286 6.188-10.21 13.694.075 7.505 4.77 13.543 10.485 13.485Z"/>
  <path fill="#fff" d="M159.925 226.426c1.67-.017 3.005-1.808 2.983-4-.022-2.192-1.393-3.955-3.063-3.938-1.67.017-3.005 1.807-2.983 3.999.022 2.192 1.394 3.955 3.063 3.939Z"/>
  <path fill="#000072" d="M236.143 215.851c-2.025.624-4.079 1.356-5.981 2.196a37.487 37.487 0 0 0-5.404 2.921c-.858.529-1.632 1.155-2.431 1.743l-1.116.974c-.181.168-.382.312-.554.488l-.515.527c-1.436 1.349-2.566 2.965-3.679 4.599l-3.619-3.956c.185-.084.303-.127.43-.177.13-.053.253-.097.372-.138.243-.083.487-.167.725-.233.478-.15.954-.265 1.431-.382a23.418 23.418 0 0 1 2.877-.467 21.698 21.698 0 0 1 5.772.181c1.893.323 3.751.847 5.447 1.694 1.73.759 3.263 1.873 4.651 3.058a.966.966 0 0 1-.911 1.659l-.11-.034c-.821-.253-1.583-.582-2.379-.806-.803-.208-1.571-.459-2.371-.591a22.51 22.51 0 0 0-4.722-.461 22.146 22.146 0 0 0-4.626.467c-.378.072-.751.175-1.125.258l-1.103.312c-.36.118-.722.23-1.065.366-.178.063-.34.133-.504.202a5.436 5.436 0 0 0-.235.099l-.17.078-.066.031a2.797 2.797 0 0 1-3.703-1.388 2.823 2.823 0 0 1 .149-2.599c1.269-2.109 2.682-4.187 4.52-5.871.849-.911 1.879-1.615 2.842-2.384 1.042-.659 2.057-1.36 3.171-1.866a25.083 25.083 0 0 1 6.845-2.281c2.363-.402 4.705-.525 7.12-.14a.973.973 0 0 1 .133 1.889l-.096.032Zm-58.239 38.916c-4.322-.98-10.904-3.735-10.042-11.374a3.409 3.409 0 0 1 1.974-2.699c3.707-1.71 13.231-4.894 23.771 1.149a3.423 3.423 0 0 1 1.692 3.191c-.209 3.166-1.77 8.789-10.051 10.021a19.9 19.9 0 0 1-7.344-.288Z"/>
  <path fill="#fff" d="M179.985 243.488c2.712 0 4.911-.471 4.911-1.052 0-.581-2.199-1.052-4.911-1.052-2.713 0-4.912.471-4.912 1.052 0 .581 2.199 1.052 4.912 1.052Z"/>
  <defs>
    <filter id="a" width="114.446" height="54.509" x="15.431" y="193.246" color-interpolation-filters="sRGB" filterUnits="userSpaceOnUse">
      <feFlood flood-opacity="0" result="BackgroundImageFix"/>
      <feColorMatrix in="SourceAlpha" result="hardAlpha" values="0 0 0 0 0 0 0 0 0 0 0 0 0 0 0 0 0 0 127 0"/>
      <feOffset dx="2" dy="4"/>
      <feGaussianBlur stdDeviation="5"/>
      <feComposite in2="hardAlpha" operator="out"/>
      <feColorMatrix values="0 0 0 0 0 0 0 0 0 0 0 0 0 0 0 0 0 0 0.1 0"/>
      <feBlend in2="BackgroundImageFix" result="effect1_dropShadow_21_968"/>
      <feBlend in="SourceGraphic" in2="effect1_dropShadow_21_968" result="shape"/>
    </filter>
    <filter id="b" width="169.625" height="74.669" x="338.725" y="135.326" color-interpolation-filters="sRGB" filterUnits="userSpaceOnUse">
      <feFlood flood-opacity="0" result="BackgroundImageFix"/>
      <feColorMatrix in="SourceAlpha" result="hardAlpha" values="0 0 0 0 0 0 0 0 0 0 0 0 0 0 0 0 0 0 127 0"/>
      <feOffset dx="2" dy="4"/>
      <feGaussianBlur stdDeviation="5"/>
      <feComposite in2="hardAlpha" operator="out"/>
      <feColorMatrix values="0 0 0 0 0 0 0 0 0 0 0 0 0 0 0 0 0 0 0.1 0"/>
      <feBlend in2="BackgroundImageFix" result="effect1_dropShadow_21_968"/>
      <feBlend in="SourceGraphic" in2="effect1_dropShadow_21_968" result="shape"/>
    </filter>
  </defs>
</svg>
