<svg xmlns="http://www.w3.org/2000/svg" width="96" height="87" fill="none" viewBox="0 0 96 87">
  <path fill="#E56355" d="m76.189 59.94-63.55-16.833c1.986 6.479 5.675 15.24 6.968 24.599 1.293 9.358.307 12.492.307 12.492s-4.38-1.069-4.38 3.754h6.31a2.8 2.8 0 0 0 2.178-1.069 13.457 13.457 0 0 0 2.337-3.669c.273-1.336 1.504-12.193 1.781-15.025.133-1.573.438-3.128.909-4.641 0 0 26.294-1.454 28.984-.75 2.69.705 5.197 7.915 8.896 9.626 3.7 1.711 5.457 2.703 5.672 3.357.215.654 0 9.209 0 9.209s-3.109-.45-3.109 2.93h5.674c1.057-.002 1.952-.735 2.1-1.721.453-3.21 1.372-9.85 1.372-11.047.026-1.51-3.231-4.303-2.45-11.212Z"/>
  <path fill="url(#a)" d="M88.981 8.46c-4.25-2.197-9.558-1.221-12.62 2.321a2.119 2.119 0 0 0 .17 2.898c.47.429 1.115.646 1.767.595a2.305 2.305 0 0 0 1.638-.863c1.8-1.898 4.767-2.345 7.105-1.069 2.793 1.252 5.3 4.418 3.893 9.529-2.054 7.491-11.816 8.332-12.246 8.364-.175.014-.347.05-.511.107-8.056-4.578-19.293-3.209-26.283-3.004-8.046.235-21.903.405-21.903.405S24.545 15.517 22.82 12.48c-1.15-2.67-3.527-4.701-6.459-5.52 0 0-2.393-5.276-5.104-6.902a23.623 23.623 0 0 0-.795 6.663 9.833 9.833 0 0 0-4.845 2.025 4.55 4.55 0 0 0-1.542 2.91c-.046.28-.046.564 0 .844.215.932 1.02 2.91.374 3.37a33.17 33.17 0 0 1-3.62 1.123c-.409.235-.374 2.01.908 2.138 0 0 .896 3.872 3.247 4.455a27.11 27.11 0 0 0 5.912.46s-.43 17.23 1.719 24.224c2.148 6.993 9.225 10.235 10.61 20.395 1.386 10.16.33 13.507.33 13.507s-4.727-1.214-4.727 4.05h6.806a3.02 3.02 0 0 0 2.348-1.07 14.406 14.406 0 0 0 2.6-4.03c.238-1.444 1.555-13.208 1.86-16.235.143-1.703.47-3.387.975-5.028 0 0 28.37-1.57 31.332-.81 2.963.762 5.674 8.557 9.612 10.396 3.938 1.838 5.89 2.93 6.151 3.644.262.715 0 9.946 0 9.946s-3.405-.492-3.405 3.21h6.14c1.15.008 2.125-.796 2.269-1.872.498-3.454 1.504-10.63 1.504-11.936 0-1.72-3.517-4.77-2.68-12.203.806-7.038 4.62-18.877-1.793-26.322 4.166-1.069 10.791-3.819 12.755-10.934 2.144-7.7-2.058-12.62-6.32-14.517Z"/>
  <path fill="#E56355" d="m79.222 30.154-.532.065c-.175.014-.347.05-.512.107-8.056-4.578-19.292-3.209-26.283-3.005-8.046.235-21.903.405-21.903.405s2.475 11.05 11.928 10.096c9.453-.954 14.128-3.047 20.195 1.229s9.079 6.022 9.601 0c.344-4.116 4.746-6.427 7.507-8.897Z" opacity=".7"/>
  <path fill="#E56355" d="M84.372 60.198c.691-6.075 3.609-15.7.294-23.016-3.254 1.053-5.331 4.058-5.038 7.29.17 6.663-6.9 8.726-6.06 13.97.84 5.244 8.75 3.969 9.6 9.84.415 1.987 1.872 3.639 3.868 4.386v-.267c.013-1.73-3.504-4.766-2.664-12.203Z"/>
  <path fill="#E56355" d="M21.663 36.4c-2.066.583-3.437 2.426-3.313 4.455 0 3.69 6.525 1.07 7.126 6.524.602 5.455 12.031 7.087 14.64 4.353 2.608-2.733-3.11-2.942-7.013-8.749-3.904-5.807-6.626-7.236-11.44-6.582Z" opacity=".7"/>
  <path fill="#E56355" d="M13.617 6.507A15.123 15.123 0 0 0 11.29.015a23.627 23.627 0 0 0-.788 6.662l3.115-.17Z"/>
  <path fill="#E56355" d="M23.195 68.625c.183 1.358.318 2.577.43 3.701.193-3.669-1.667-20.845-7.502-27.679-5.835-6.833-2.926-20.642-2.926-20.642h-2.338s-.43 17.23 1.719 24.224c2.148 6.994 9.227 10.235 10.617 20.396Zm41.556-9.561c1.135.3 2.27 1.743 3.507 3.476-2.338-3.359-2.68-5.957-8.38-5.882-5.699.075-25.726-.961-25.726-.961a17.046 17.046 0 0 1-.726 4.17s28.42-1.573 31.325-.803Z" opacity=".4"/>
  <path fill="#E56355" d="M80.23 10.56c0 .887-.09 1.796-.135 2.695a4.523 4.523 0 0 1 2.61-1.443c0-.662.09-1.215.08-1.486-.048-.96-.212-1.91-.488-2.835a10.34 10.34 0 0 0-2.451.684c.242.775.372 1.578.384 2.385Zm15.206 11.959c-1.35-.128-2.69-.492-4.017-.608h-.488a9.261 9.261 0 0 1-1.134 2.47 5.696 5.696 0 0 1 1.805 0c1.02.108 2.019.31 3.029.45.267-.609.491-1.234.67-1.87.06-.144.105-.291.135-.442Zm-4.778-6.696c.4.866.627 1.794.67 2.737.727.183 1.464.31 2.149.417.8.118 1.607.193 2.417.225.017-.835-.055-1.67-.215-2.492a14.423 14.423 0 0 1-2.53-.235 12.753 12.753 0 0 1-2.49-.652Zm-10.29 14.461a34.25 34.25 0 0 1 4.278 2.962 22.39 22.39 0 0 0 2.578-1.07c-.782-.469-1.476-1.214-2.179-1.732a20.765 20.765 0 0 0-1.805-1.252 20.137 20.137 0 0 1-3.312.857c.144.085.303.15.44.235Zm8.42-3.55a3.319 3.319 0 0 1-.125-.899 11.84 11.84 0 0 1-2.269 1.823c.316.85.695 1.68 1.135 2.48.253.487.458.996.612 1.518.74-.412 1.445-.877 2.11-1.39-.488-1.304-1.248-2.637-1.463-3.532ZM84.7 11.727a7.563 7.563 0 0 1 2.349.607l.103.053a28.341 28.341 0 0 1 1.237-4.161 12.767 12.767 0 0 0-2.416-.674 33.133 33.133 0 0 0-1.272 4.18v-.005Zm4.892 2.458c.018-.073.04-.145.069-.215a6.93 6.93 0 0 1 1.906-2.025l1.054-.973A11.763 11.763 0 0 0 90.727 9.4a18.724 18.724 0 0 0-3.019 3.21 7.541 7.541 0 0 1 1.884 1.583v-.008Z"/>
  <path fill="#fff" d="M70.197 29.555c2.27-.075 4.64.235 6.968.245-7.95-3.926-18.509-2.675-25.261-2.48-8.046.234-21.903.404-21.903.404s-5.459-12.203-7.184-15.24a12.156 12.156 0 0 0-4.196-4.693 9.25 9.25 0 0 1 2.202 3.508 84.676 84.676 0 0 1 4.187 14.214 7.287 7.287 0 0 0 1.85 4.279 8.677 8.677 0 0 0 5.232 1.336l7.949.15c7.83.379 15.68.092 23.456-.857a54.272 54.272 0 0 1 6.707-.866h-.007Z" opacity=".15"/>
  <path fill="#E56355" d="M2.484 16.582c-.575.118-1.14.275-1.69.47-.409.235-.374 2.01.908 2.138.85-.606 1.17-1.672.782-2.608Z"/>
  <defs>
    <linearGradient id="a" x1=".597" x2="95.88" y1="86.158" y2="86.158" gradientUnits="userSpaceOnUse">
      <stop stop-color="#E8366B"/>
      <stop offset="1" stop-color="#F5947F"/>
    </linearGradient>
  </defs>
</svg>
