<svg xmlns="http://www.w3.org/2000/svg" width="215" height="218" fill="none" viewBox="0 0 215 218">
  <g clip-path="url(#a)" opacity=".8">
    <path fill="#BCF0EB" d="M97.934 132.941c20.354-19.134 20.354-50.157 0-69.292-20.354-19.134-53.355-19.134-73.71 0-20.353 19.135-20.353 50.158 0 69.292 20.355 19.134 53.356 19.134 73.71 0Z"/>
    <path fill="#93E3EF" d="M164.792 100.616c23.554 0 42.648-17.95 42.648-40.092s-19.094-40.092-42.648-40.092c-23.554 0-42.648 17.95-42.648 40.092s19.094 40.092 42.648 40.092Z"/>
    <path fill="#BCF0EB" d="M203.891 138.245c7.333-6.893 7.333-18.07 0-24.963-7.333-6.894-19.222-6.894-26.555 0-7.333 6.893-7.333 18.07 0 24.963 7.333 6.894 19.222 6.894 26.555 0Z"/>
    <path fill="#93E3EF" d="M85.5 36.922c10.416-4.056 15.362-15.281 11.048-25.072-4.314-9.792-16.255-14.442-26.67-10.386C59.461 5.52 54.515 16.745 58.83 26.536c4.314 9.792 16.255 14.441 26.67 10.386Z"/>
    <path fill="#967F92" d="M45.752 198.428c-3.137 5.898-10.44 9.444-17.429 8.86-6.989-.583-13.35-5.051-16.354-11.006-3.004-5.956-2.77-13.178.193-19.146 1.549-3.138 3.812-5.993 4.573-9.369.76-3.376-.668-7.587-4.206-8.484-4.205-1.073-8.257 2.956-12.529 2.165 1.208-5.196 2.703-10.768 7.163-13.981 4.84-3.495 12.262-2.893 16.908.835 4.646 3.727 6.515 9.996 5.393 15.637-.974 4.864-3.884 9.162-6.1 13.649-2.217 4.487-3.719 9.758-1.77 14.37.84 1.917 2.221 3.582 3.994 4.815a12.579 12.579 0 0 0 6.066 2.182c2.2.138 4.397-.29 6.357-1.239 1.96-.948 3.607-2.382 4.764-4.145 1.041 1.418 1.95 3.47 2.977 4.857Z"/>
    <path fill="#645B79" d="M45.752 198.428c-1.028-1.393-1.936-3.439-2.964-4.832-1.524 2.334-3.895 4.07-6.675 4.888a22.27 22.27 0 0 0 3.438 6.231c2.644-1.518 4.79-3.694 6.201-6.287Z"/>
    <path fill="#fff" d="m137.804 215.339-15.647-104.431c-1.883 3.94-5.894 12.989-15.059 12.989-9.166 0-13.852-7.913-14.846-11.22l-7.076 102.662h52.628Z"/>
    <path fill="#E4E4E0" d="M117.845 123.621a20.317 20.317 0 0 1-5.641 2.46c-2.2.611-4.511.79-6.788.527a17.484 17.484 0 0 1-6.449-2.058 19.436 19.436 0 0 1-4.846-3.69 12.55 12.55 0 0 0 4.085 4.738 14.924 14.924 0 0 0 6.979 2.674 15.248 15.248 0 0 0 7.46-1.005 13.171 13.171 0 0 0 5.2-3.646Zm7.122 24.994c-2.169 1.061-4.672 2.253-7.343 3.395a99.84 99.84 0 0 1-8.484 3.194c-2.93.948-5.927 1.726-8.791 2.36-2.864.633-5.587 1.11-8.01 1.525 2.747.339 5.528.371 8.284.094 6.321-.62 12.412-2.577 17.816-5.723a34.974 34.974 0 0 0 6.528-4.845Z"/>
    <path fill="#BD6C67" d="M107.084 123.897c9.165 0 13.177-9.049 15.06-12.989l-2.063.79-1.969-15.688-23.177 3.577v13.624l-2.67-.502c.968 3.275 5.654 11.188 14.819 11.188Z"/>
    <path fill="#422C4F" d="M118.112 96.01c-1.856 16.856-15.66 17.201-23.117 6.803l-.06-3.226 23.177-3.577ZM82.98 94.128C75.837 88.869 68.835 77.85 63.722 68.23c-3.184-5.974-7.043-14.107-9.506-19.397a7.374 7.374 0 0 1-.405-5.206c.505-1.727 1.626-3.239 3.175-4.282 14.018-9.412 35.606-13.805 48.249-15.217a8.71 8.71 0 0 1 5.432 1.167c1.613.966 2.821 2.427 3.42 4.136 2.863 8.113 5.64 16.993 7.102 24.228 1.822 9.011 2.41 20.137-.04 29.6l-38.17 10.869Z"/>
    <path fill="#454F6B" d="M66.379 39a149.241 149.241 0 0 1 27.795-8.942c4.179-.904 8.471-1.638 12.73-1.217a18.755 18.755 0 0 1 7.843 2.51l-.667-1.883c-.598-1.708-1.806-3.169-3.42-4.135a8.715 8.715 0 0 0-5.432-1.167c-12.642 1.412-34.197 5.817-48.248 15.217-1.55 1.043-2.671 2.555-3.175 4.282a7.373 7.373 0 0 0 .405 5.206l.206.44a11.228 11.228 0 0 1 2.41-4.255c2.497-2.799 6.041-4.53 9.553-6.056Z"/>
    <path fill="#A64F5A" d="M120.088 82.876a6.971 6.971 0 0 0 3.398 1.018 7.017 7.017 0 0 0 3.47-.773 8.697 8.697 0 0 0 2.68-2.253 8.124 8.124 0 0 0 1.506-3.068 6.567 6.567 0 0 0-.281-4.556 5.468 5.468 0 0 0-2.609-2.478 5.953 5.953 0 0 0-3.683-.413 5.691 5.691 0 0 0-3.157 1.832 5.104 5.104 0 0 0-1.258 3.28c0 2.26-.093 5.152-.066 7.411Z"/>
    <path fill="#8C404C" d="M128.345 73.696c-.347-.935-1.656-1.305-2.67-.973a4.16 4.16 0 0 0-2.163 2.065 8.408 8.408 0 0 0-.801 5.91c.16.672.554 1.45 1.288 1.513.225 0 .446-.052.643-.153.197-.1.364-.247.485-.424a3.52 3.52 0 0 0 .488-1.174 4.963 4.963 0 0 0 .253-2.346 1.794 1.794 0 0 0-.547-1.034 2.005 2.005 0 0 0-1.095-.523c.032-.448.161-.885.379-1.284.218-.4.521-.752.89-1.037.667-.578 1.955-.666 2.85-.54Z"/>
    <path fill="#A64F5A" d="M84.108 92.873a6.223 6.223 0 0 1-1.854 2.865 6.826 6.826 0 0 1-3.16 1.559 9.397 9.397 0 0 1-3.592-.049 9.126 9.126 0 0 1-3.276-1.388c-1.394-.854-2.441-2.125-2.97-3.609a4.987 4.987 0 0 1 .203-3.515 5.42 5.42 0 0 1 2.506-2.617 5.94 5.94 0 0 1 3.698-.56 5.72 5.72 0 0 1 3.252 1.748c1.535 1.706 3.618 3.846 5.193 5.566Z"/>
    <path fill="#8C404C" d="M71.425 91.034c-.394-.916.334-2.002 1.335-2.36a4.487 4.487 0 0 1 3.07.22c2.017.769 3.687 2.17 4.727 3.966.353.628.6 1.437.087 1.933a1.402 1.402 0 0 1-1.255.263 3.946 3.946 0 0 1-1.182-.583 5.444 5.444 0 0 1-1.829-1.613 1.755 1.755 0 0 1-.307-1.127c.03-.398.196-.775.474-1.075a3.548 3.548 0 0 0-1.193-.733 3.72 3.72 0 0 0-1.404-.227c-.894-.02-1.915.696-2.523 1.336Z"/>
    <path fill="#BD6C67" d="m71.038 64.377 1.442 6.012a41.552 41.552 0 0 1 1.148 9.682v1.557l9.345 12.55c2.963 3.972 7.16 6.986 12.016 8.628l3.845 1.306a16.058 16.058 0 0 0 9.432.244c3.811-1.07 7.021-3.509 8.931-6.79l.908-1.562c2.26-3.88 3.313-8.279 3.037-12.695l-.988-16.102c-4.219-3.963-7.593-8.65-9.939-13.805l-1.021-2.247a3.738 3.738 0 0 0-2.1-1.918 4.057 4.057 0 0 0-2.927.036l-15.653 6.275-14.926 4.681a3.793 3.793 0 0 0-2.115 1.618 3.417 3.417 0 0 0-.435 2.53Z"/>
    <path fill="#422C4F" d="m111.984 64.785-12.783-.42a7.95 7.95 0 0 1 2.684-1.992 8.43 8.43 0 0 1 3.324-.757c2.396-.05 5.193 1.525 6.775 3.169Zm-3.178 8.503a2.692 2.692 0 0 0-.847-1.67 3.009 3.009 0 0 0-1-.648 3.16 3.16 0 0 0-2.379.02c-.374.156-.71.383-.987.666a2.695 2.695 0 0 0-.814 1.682 4.33 4.33 0 0 1 1.336-1.052 4.59 4.59 0 0 1 1.668-.479 4.553 4.553 0 0 1 1.673.45 4.3 4.3 0 0 1 1.35 1.03Zm-34.824-.276 11.561-5.146a8.467 8.467 0 0 0-6.709-.27c-2.189.804-4.071 3.314-4.852 5.416Zm6.481 6.626a2.612 2.612 0 0 1 .074-1.845c.14-.359.359-.687.64-.964.282-.277.62-.497.996-.646a3.143 3.143 0 0 1 2.369.023 2.86 2.86 0 0 1 1.455 1.255 3.854 3.854 0 0 0-3.395-.282 3.634 3.634 0 0 0-1.406.987 3.34 3.34 0 0 0-.753 1.491l.02-.019Z"/>
    <path fill="#8C404C" d="m102.452 80.994-11.729 3.42a8.291 8.291 0 0 0 3.233 1.275 8.505 8.505 0 0 0 3.502-.146c2.297-.57 4.006-2.51 4.994-4.55Z"/>
    <path fill="#fff" d="m111.937 83.761-21.654 8.66c3.39 3.696 9.425 5.378 14.265 3.59 4.839-1.79 7.596-7.374 7.389-12.25Z"/>
    <path fill="#A64F5A" d="M109.38 95.872a22.763 22.763 0 0 1-7.956 3.427 6.158 6.158 0 0 0 2.423.786c.859.092 1.73.006 2.55-.253 1.608-.602 2.469-2.41 2.983-3.96Zm9.479-17.947c.528 1.757-1.795 3.904-5.18 4.794-3.384.892-6.555.189-7.082-1.575-.527-1.763 1.802-3.903 5.187-4.794 3.384-.89 6.555-.182 7.075 1.575ZM88.32 86.334c.528 1.757-.934 3.677-3.264 4.292-2.33.615-4.673-.32-5.16-2.083-.487-1.763.941-3.677 3.264-4.286 2.323-.609 4.64.32 5.16 2.077Z"/>
    <path fill="#F0BF6C" d="M76.211 109.697c-7.247-1.346-14.767-.29-21.28 2.988-6.513 3.277-11.618 8.574-14.446 14.99l-16.801 38.122 28.556 7.706 10.62-28.276-19.358 70.112h41.674l7.062-102.662-16.027-2.98Z"/>
    <path fill="#EBA25D" d="m92.238 112.677-8.157-1.518 4.353 56.891 3.804-55.373Z"/>
    <path fill="#422C4F" d="M88.433 168.175a.165.165 0 0 1-.108-.04.145.145 0 0 1-.052-.098l-3.377-44.159a.146.146 0 0 1 .04-.106.164.164 0 0 1 .106-.05.17.17 0 0 1 .064.004c.02.006.04.016.056.029a.139.139 0 0 1 .054.105l3.204 41.962 3.698-53.157a.139.139 0 0 1 .052-.103.154.154 0 0 1 .054-.029c.02-.006.04-.008.061-.006.041.003.08.021.107.05.028.03.042.068.04.107l-3.811 55.378a.142.142 0 0 1-.048.098.158.158 0 0 1-.106.04l-.034-.025Z"/>
    <path fill="#F0BF6C" d="m210.023 137.295-37.134-28.634c-4.406-3.393-9.696-5.618-15.323-6.445a33.885 33.885 0 0 0-16.685 1.739l-18.691 6.953 15.66 104.431h36.507l-14.959-83.133 18.691 14.546 31.934-9.457Z"/>
    <path fill="#EBA25D" d="m122.144 110.908 8.564 57.142-.941-59.972-7.623 2.83Z"/>
    <path fill="#422C4F" d="M130.708 166.117a.161.161 0 0 1-.103-.04.147.147 0 0 1-.051-.092l-7.483-47.83a.149.149 0 0 1-.005-.063.131.131 0 0 1 .024-.06.158.158 0 0 1 .111-.068.156.156 0 0 1 .068.004.161.161 0 0 1 .06.03.143.143 0 0 1 .041.051.14.14 0 0 1 .015.063l7.143 45.67L130 114.71c0-.04.017-.078.047-.106a.167.167 0 0 1 .227 0c.03.028.047.066.047.106l.547 51.275a.146.146 0 0 1-.042.102.17.17 0 0 1-.105.049l-.013-.019Zm-62.26 11.672a43.82 43.82 0 0 1 7.576-4.217 15.315 15.315 0 0 1 8.611-1.011c4.887 1.017 8.531 5.297 9.472 9.921.942 4.625-.473 9.451-2.916 13.555-2.444 4.104-5.861 7.618-9.246 11.088 8.057 1.343 12.843 1.45 18.057.703 5.213-.747 8.157 3.903 8.157 7.53H73.494a4.068 4.068 0 0 1-1.812-.421 3.808 3.808 0 0 1-1.391-1.17 3.51 3.51 0 0 1-.648-1.646c-.07-.59.015-1.187.247-1.739l1.408-3.389c-18.664-16.742-2.85-29.204-2.85-29.204Z"/>
    <path fill="#645B79" d="m172.722 70.633 4.673 2.053 4.893 3.137c2.77-11.295-.855-24.09-.855-24.09l-8.738 18.87"/>
    <path fill="#422C4F" d="m172.722 70.633 4.672 2.053c3.932-10.104 4.006-20.922 4.006-20.922l-8.678 18.87Z"/>
    <path fill="#CEB49D" d="m146.608 118.984-2.983 2.717a11.256 11.256 0 0 0-2.861 4.075 10.68 10.68 0 0 0-.764 4.829c1.248 16.498-15.593 24.706-21.888 41.705-5.594 15.782-7.724 43.029 23.17 43.029h62.647l-1.002-3.928c-.554-2.237-1.956-4.207-3.944-5.543-1.988-1.335-4.425-1.943-6.856-1.711l-5.908.558c15.554-26.638 10.868-43.129 0-41.592 16.975-29.091 9.799-40.926 2.343-49.04 5.113-22.139-.213-38.116-.213-38.116 2.77-11.295-.855-24.084-.855-24.084l-8.738 18.863-5.881-2.572a14.798 14.798 0 0 0-10.593-.459 14.916 14.916 0 0 1-6.081.684l-24.806-2.315c2.303 23.438 20.52 28.05 20.52 28.05.234 15.939-5.307 24.85-5.307 24.85Z"/>
    <path fill="#422C4F" d="M118.112 172.461h-.054a.151.151 0 0 1-.104-.136c0-.02.003-.04.011-.059 2.623-7.084 7.022-12.588 11.281-17.909 5.821-7.279 11.348-14.15 10.594-23.733-.131-1.666.131-3.34.767-4.901a11.338 11.338 0 0 1 2.911-4.129l2.983-2.717a.177.177 0 0 1 .052-.033.178.178 0 0 1 .123 0 .15.15 0 0 1 .097.14.154.154 0 0 1-.045.107l-2.983 2.71a11.083 11.083 0 0 0-2.83 4.019 10.519 10.519 0 0 0-.755 4.767c.741 9.689-4.793 16.61-10.68 23.933-4.246 5.303-8.631 10.781-11.235 17.828a.15.15 0 0 1-.048.076.167.167 0 0 1-.085.037Zm32.662-65.224h-.034a.166.166 0 0 1-.102-.064.15.15 0 0 1-.025-.112 60.53 60.53 0 0 0 1.162-12.896c0-.04.017-.08.046-.108a.173.173 0 0 1 .114-.048.16.16 0 0 1 .113.044.143.143 0 0 1 .047.106 61.11 61.11 0 0 1-1.168 12.958.143.143 0 0 1-.053.087.169.169 0 0 1-.1.033Z"/>
    <path fill="#967F92" d="M132.417 209.591c-15.894-4.493-17.389-15.43-17.583-21.436-.727 13.561 4.599 27.184 26.448 27.184h14.091l-17.195-1.631a7.214 7.214 0 0 1-3.496-1.298 6.583 6.583 0 0 1-2.265-2.819ZM135 183.298a25.356 25.356 0 0 1 2.163-7.593 50.13 50.13 0 0 1 4.459-7.63c1.749-2.548 3.685-5.115 5.56-7.813a85.205 85.205 0 0 0 5.207-8.509 80.624 80.624 0 0 0 6.969-18.161 78.19 78.19 0 0 0 1.615-8.785c.319-2.654.488-5.323.508-7.994-.441 2.459-.935 5.089-1.582 7.831a118.938 118.938 0 0 1-2.35 8.497 109.317 109.317 0 0 1-7.383 17.57c-1.528 2.874-3.204 5.648-4.953 8.378-1.749 2.729-3.591 5.384-5.193 8.082a41.453 41.453 0 0 0-3.879 8.158 21.685 21.685 0 0 0-1.141 7.969Zm21.815-74.605c-2.156 1.851-4.8 4.354-7.497 6.802l-1.702 1.55c-.298.663-.634 1.31-1.008 1.939l-1.875 1.707a41.016 41.016 0 0 0 5.553-4.255 36.518 36.518 0 0 0 6.529-7.743Z"/>
    <path fill="#CEB49D" d="M132.417 209.591a23.209 23.209 0 0 1-9.259 4.44c-3.411.785-6.97.813-10.394.083-3.425-.731-6.622-2.2-9.338-4.292-2.717-2.091-4.879-4.749-6.315-7.761a27.743 27.743 0 0 1-2.416-11.051 8.156 8.156 0 0 0 2.897 3.596 25.444 25.444 0 0 1-2.543-11.454 25.503 25.503 0 0 1 2.89-11.381 11.338 11.338 0 0 0 .374 6.564c1.075-9.143 9.072-17.797 18.53-20.156-4.009 3.849-7.057 8.488-8.924 13.582a34.285 34.285 0 0 0-1.869 15.867c.667 5.503 2.903 11.051 7.302 14.741 4.399 3.689 11.235 5.089 16.375 2.372 1.181.978 2.903 3.363 2.69 4.85Z"/>
    <path fill="#422C4F" d="M117.611 214.768a23.082 23.082 0 0 1-4.879-.508.16.16 0 0 1-.101-.067.143.143 0 0 1-.02-.115.171.171 0 0 1 .201-.094c3.402.697 6.929.655 10.312-.124a23.464 23.464 0 0 0 9.206-4.369.161.161 0 0 1 .118-.035.159.159 0 0 1 .06.017.148.148 0 0 1 .049.037.136.136 0 0 1 .03.052c.007.019.009.038.007.058a.146.146 0 0 1-.018.057.143.143 0 0 1-.039.046c-4.193 3.274-9.475 5.06-14.926 5.045Zm6.108-8.496c-3.868-.035-7.59-1.391-10.474-3.816-3.958-3.325-6.575-8.597-7.342-14.834a34.658 34.658 0 0 1 1.909-15.914c1.873-5.107 4.923-9.764 8.931-13.636a.163.163 0 0 1 .11-.041c.041 0 .081.014.111.041a.15.15 0 0 1 .034.049.13.13 0 0 1 .013.058.128.128 0 0 1-.013.057.14.14 0 0 1-.034.049c-3.974 3.841-6.997 8.457-8.856 13.521a34.39 34.39 0 0 0-1.898 15.778c.781 6.169 3.337 11.371 7.256 14.646 4.612 3.885 11.421 4.876 16.187 2.36a.17.17 0 0 1 .133-.035.174.174 0 0 1 .065.026.146.146 0 0 1 .067.112.136.136 0 0 1-.011.066.163.163 0 0 1-.039.055.181.181 0 0 1-.061.033 12.973 12.973 0 0 1-6.088 1.425Zm14.872-139.498a21.57 21.57 0 0 0-6.775-1.8 2.288 2.288 0 0 0-1.101.149 2.15 2.15 0 0 0-.877.644 1.964 1.964 0 0 0-.419.968c-.048.352.003.71.147 1.037v.063c.251.508.616.96 1.07 1.323a4.22 4.22 0 0 0 1.559.784 4.39 4.39 0 0 0 1.764.1 4.302 4.302 0 0 0 1.649-.6 11.68 11.68 0 0 0 2.983-2.668Z"/>
    <path fill="#967F92" d="M150.326 193.903c2.67 5.228 8.912 9.181 14.953 7.97 5.38-1.08 9.092-5.704 11.581-10.323 3.225-5.961 5.241-13.178 2.197-19.246-1.398-2.639-3.638-4.802-6.408-6.186a15.87 15.87 0 0 0-9.039-1.532c-6.161.891-11.234 6.275-13.971 11.295-2.784 5.139-1.869 13.052.687 18.022Zm.161-107.933c2.858 2.754 6.41 4.785 10.326 5.904a25.793 25.793 0 0 0 12.076.497c3.925-.81 7.583-2.51 11.521-3.257a15.795 15.795 0 0 1 6.235.081c-.581-8.245-2.236-13.228-2.236-13.228 2.77-11.295-.855-24.084-.855-24.084l-8.738 18.863-5.881-2.572a14.798 14.798 0 0 0-10.593-.459 14.92 14.92 0 0 1-6.141.684l-12.016-1.104a21.596 21.596 0 0 0 .92 10.003c1.089 3.23 2.927 6.191 5.382 8.672Zm30.305 43.33c-6.379 2.514-11.491 7.23-14.285 13.178-1.689 3.633-2.43 7.863-.914 11.565 1.755 4.28 6.361 7.179 11.181 7.888 3.679.461 7.422.029 10.874-1.255 8.377-15.06 10.013-25.314 8.537-32.775a28.713 28.713 0 0 0-15.393 1.399Zm-36.387 19.867a8.5 8.5 0 0 0 1.08-5.072 8.682 8.682 0 0 0-2.087-4.786 8.437 8.437 0 0 0-3.845-2.297c-1.335 6.119-5.174 11.183-9.392 16.467 1.586.631 3.297.937 5.019.897a11.529 11.529 0 0 0 5.337-1.472 10.664 10.664 0 0 0 3.888-3.737Z"/>
    <path fill="#422C4F" d="M172.622 74.963a5.18 5.18 0 0 0-1.689-2.083 6.879 6.879 0 0 0-2.944-1.265 7.084 7.084 0 0 0-3.231.186c-.903.257-1.72.73-2.369 1.374a18.45 18.45 0 0 1 5.28.05 17.78 17.78 0 0 1 4.953 1.738Zm6.161-4.217 4.673 2.052c3.931-10.103 4.038-20.915 4.038-20.915l-8.711 18.863Z"/>
    <path fill="#967F92" d="M164.244 215.339c13.584 0 15.02-12.468 20.613-25.54-1.275 10.518-8.31 25.54-8.31 25.54h-12.303Z"/>
    <path fill="#422C4F" d="M203.929 215.49h-62.647a.167.167 0 0 1-.114-.044.145.145 0 0 1 0-.213.167.167 0 0 1 .114-.044h62.647c.042 0 .083.016.113.044a.145.145 0 0 1 0 .213.167.167 0 0 1-.113.044Z"/>
    <path fill="#422C4F" d="M202.44 215.49a.172.172 0 0 1-.105-.039.15.15 0 0 1-.055-.093c-.895-5.798-2.904-7.059-4.366-7.982l-.28-.176a.15.15 0 0 1-.045-.042.151.151 0 0 1-.022-.116.142.142 0 0 1 .027-.055.169.169 0 0 1 .102-.059.178.178 0 0 1 .118.021l.274.176c1.522.954 3.598 2.259 4.506 8.189.003.02.003.04-.002.059a.154.154 0 0 1-.026.053.149.149 0 0 1-.047.039.17.17 0 0 1-.059.019l-.02.006Z"/>
    <path fill="#BD6C67" d="m193.956 136.065-36.747 24.737c-2.591-2.162-5.789-3.576-9.212-4.073a18.696 18.696 0 0 0-10.56 1.531c-.458.206-.85.522-1.135.916-.861 1.255.153 2.278 1.248 2.58a9.25 9.25 0 0 0 2.39.156c2.956.023 5.824.951 8.17 2.642-4.005 3.96-9.792 6.991-15.613 7.323-1.495.088-3.071.051-4.332.954a2.26 2.26 0 0 0-.801.917 2.104 2.104 0 0 0-.187 1.173c.233 1.362 1.809 1.826 3.157 2.002 4.673.627 9.479-.082 14.071-1.18l-12.542 2.755c-.848.188-1.789.426-2.05 1.349a1.647 1.647 0 0 0-.003.771c.06.254.18.492.351.697.714.898 1.895 1.149 3.01 1.299 5.763.748 11.624-.408 16.581-3.269-3.267 2.135-7.061 3.451-11.02 3.821a3.6 3.6 0 0 0-1.242.251 1.045 1.045 0 0 0-.468.397.945.945 0 0 0-.146.576c.093.483.667.734 1.175.872a14.58 14.58 0 0 0 7.342-.2 42.307 42.307 0 0 0 6.849-2.661l-7.723 3.533c-.507.232-1.068.508-1.101 1.136 0 .216.062.429.179.616.118.186.286.34.488.444a3.307 3.307 0 0 0 2.396.126c4.617-1.049 8.863-3.211 12.319-6.274 3.456-3.062 6.002-6.919 7.387-11.19l39.524-14.245a12.56 12.56 0 0 0 4.362-2.68 11.668 11.668 0 0 0 2.817-4.122c.619-1.545.884-3.195.778-4.844a11.196 11.196 0 0 0-1.395-4.72 11.914 11.914 0 0 0-3.387-3.828 12.812 12.812 0 0 0-4.772-2.16 13.23 13.23 0 0 0-5.296-.103 12.882 12.882 0 0 0-4.862 1.975Z"/>
    <path fill="#422C4F" d="M166.153 170.942a.172.172 0 0 1-.093-.028.161.161 0 0 1-.06-.072.148.148 0 0 1 .006-.115.166.166 0 0 1 .087-.08l26.768-9.645a.174.174 0 0 1 .123.004.157.157 0 0 1 .084.084.142.142 0 0 1-.004.116.158.158 0 0 1-.089.079l-26.761 9.645-.061.012Zm-20.94 17.621a2.411 2.411 0 0 1-1.248-.307 1.398 1.398 0 0 1-.525-.507 1.3 1.3 0 0 1-.183-.686c.04-.74.735-1.054 1.195-1.255l1.809-.828c-.28.088-.56.163-.841.238a14.61 14.61 0 0 1-7.416.201c-.768-.201-1.202-.539-1.282-.991-.025-.23.026-.462.145-.664a1.18 1.18 0 0 1 .523-.466 3.47 3.47 0 0 1 1.235-.263h.067a24.137 24.137 0 0 0 4.999-.998 26.709 26.709 0 0 1-10.567.74c-1.181-.157-2.383-.433-3.117-1.355a1.832 1.832 0 0 1-.38-.757 1.768 1.768 0 0 1 .006-.837c.294-1.048 1.422-1.293 2.17-1.456l5.6-1.255c-2.365.26-4.755.245-7.116-.044-2.002-.257-3.097-.972-3.297-2.127a2.24 2.24 0 0 1 .198-1.255 2.41 2.41 0 0 1 .856-.979c1.149-.828 2.544-.891 3.899-.954h.521c5.34-.301 11.074-2.974 15.353-7.154-2.289-1.614-5.069-2.493-7.931-2.51h-.373a7.24 7.24 0 0 1-2.003-.163 2.448 2.448 0 0 1-.944-.457 2.268 2.268 0 0 1-.638-.798 1.579 1.579 0 0 1-.076-.794c.043-.266.154-.519.323-.737.3-.416.712-.749 1.195-.966a18.911 18.911 0 0 1 10.68-1.55c3.411.494 6.602 1.891 9.199 4.028l36.64-24.661a.16.16 0 0 1 .22.031.145.145 0 0 1-.033.207l-36.714 24.743a.176.176 0 0 1-.1.03.176.176 0 0 1-.1-.03c-2.572-2.181-5.768-3.605-9.192-4.097a18.49 18.49 0 0 0-10.46 1.512 2.68 2.68 0 0 0-1.075.866c-.14.178-.233.384-.27.603-.037.218-.018.442.057.652.127.267.317.503.555.691.238.188.518.323.82.395a6.674 6.674 0 0 0 1.876.15h.473c2.983.019 5.878.953 8.244 2.661a.159.159 0 0 1 .047.046.147.147 0 0 1 .02.061.146.146 0 0 1-.047.113c-4.372 4.304-10.246 7.059-15.713 7.373h-.527c-1.302.063-2.671.125-3.719.897a2.108 2.108 0 0 0-.754.851 1.956 1.956 0 0 0-.18 1.095c.18 1.01 1.195 1.637 3.024 1.882 3.876.43 7.803.218 11.601-.627l2.41-.528a.184.184 0 0 1 .062-.005.183.183 0 0 1 .06.019.154.154 0 0 1 .072.093.145.145 0 0 1-.017.113.16.16 0 0 1-.097.069c-.834.201-1.635.377-2.423.533l-10.126 2.222c-.921.201-1.702.439-1.923 1.255-.058.232-.06.473-.005.705.054.232.163.45.319.638.668.872 1.869 1.098 2.91 1.255 5.723.733 11.54-.413 16.468-3.244a.172.172 0 0 1 .221.044c.022.033.03.073.021.112a.149.149 0 0 1-.068.095c-3.285 2.155-7.107 3.478-11.094 3.84h-.067a3.24 3.24 0 0 0-1.115.238.888.888 0 0 0-.396.329.81.81 0 0 0-.131.481c.073.408.614.627 1.054.753 2.389.556 4.894.487 7.243-.201a42.564 42.564 0 0 0 6.876-2.648.165.165 0 0 1 .116 0 .15.15 0 0 1 .086.074.143.143 0 0 1 .01.109.155.155 0 0 1-.072.087l-7.71 3.527c-.541.244-.988.495-1.022 1.016.001.185.053.367.152.528.098.161.239.295.409.388a3.123 3.123 0 0 0 2.276.107.167.167 0 0 1 .168.059.159.159 0 0 1 .026.054.13.13 0 0 1 .002.059.147.147 0 0 1-.065.098.171.171 0 0 1-.057.025 5.943 5.943 0 0 1-1.302.163Z"/>
    <path fill="#967F92" d="M56.48 88.48a35.358 35.358 0 0 0-10.46 2.51l-9.573-12.067c-3.15 10.812-1.696 25.396 4.592 39.678a25.212 25.212 0 0 1 .761 18.763c-8.15 22.785-11.04 55.222 4.873 67.389 15.607 11.634 34.765.069 38.143-8.967 3.377-9.036 3.004-30.799-.735-43.268-3.738-12.468-13.17-27.491-11.728-34.4 8.097-4.757 6.602-17.778-6.181-29.65l-5.861-14.42c-3.939 8.082-3.832 14.432-3.832 14.432Z"/>
    <path fill="#CEB49D" d="M36.447 78.923a49.99 49.99 0 0 0 2.183 19.905c.96-3.376 2.883-6.275 7.39-7.819l-9.573-12.086Z"/>
    <path fill="#645B79" d="M36.22 83.924c.04 5.051.852 10.07 2.41 14.904.76-2.673 2.129-5.058 4.9-6.69-1.825-3.171-4.311-5.965-7.31-8.214Z"/>
    <path fill="#422C4F" d="M38.63 98.978a.174.174 0 0 1-.094-.028.158.158 0 0 1-.06-.072c-.04-.113-.087-.245-.133-.389v-.082l-.147-.458v-.05c-.06-.194-.114-.364-.167-.546v-.056c-.054-.195-.114-.396-.174-.628v-.106a45.72 45.72 0 0 1-.367-1.481v-.076a22.61 22.61 0 0 1-.187-.834v-.076a62.224 62.224 0 0 1-.354-1.882v-.082a60.142 60.142 0 0 1-.32-2.114c-.047-.39-.093-.76-.134-1.136v-.07a46.294 46.294 0 0 1-.2-2.327v-.082c0-.395-.047-.797-.06-1.199v-.05a46.216 46.216 0 0 1 0-3.602c0-.04.017-.078.047-.106a.166.166 0 0 1 .113-.044c.043 0 .084.016.114.044.03.028.047.066.047.106a45.575 45.575 0 0 0 0 3.577l-.16.057h.16c0 .401.033.797.06 1.192v.082c.046.765.113 1.543.193 2.315v.07c.047.376.087.746.134 1.11.093.715.2 1.424.32 2.127v.044c.114.659.234 1.286.36 1.883v.056c.06.301.12.577.18.847v.05c.128.553.255 1.048.368 1.494l.033.113c.054.213.114.414.167.627l-.14.094.154-.043.153.508v.082l.147.451c.047-.132.093-.276.147-.42l.06-.176a8.07 8.07 0 0 1 .347-.872v-.044c.14-.314.28-.628.427-.866v-.063c.167-.295.34-.577.528-.847l.033-.044a9.475 9.475 0 0 1 1.335-1.588 10.607 10.607 0 0 1 1.862-1.386.17.17 0 0 1 .114-.011.16.16 0 0 1 .093.063.143.143 0 0 1-.033.199c-.649.38-1.25.826-1.796 1.33-.502.473-.95.994-1.335 1.556l-.167-.037.134.081c-.18.264-.347.54-.507.822v.038c-.16.289-.294.558-.421.84v.038c-.127.29-.24.565-.354.885l-.06.176c-.113.32-.2.627-.28.872a.144.144 0 0 1-.053.08.16.16 0 0 1-.094.033l-.033.031Z"/>
    <path fill="#CEB49D" d="M60.31 74.047a43.508 43.508 0 0 0-1.782 14.076 23.59 23.59 0 0 1 7.644.395l-5.861-14.47Z"/>
    <path fill="#645B79" d="M58.529 88.091a28.469 28.469 0 0 1 4.332-.081 26.853 26.853 0 0 0-3.525-9.884 40.56 40.56 0 0 0-.807 9.965Z"/>
    <path fill="#422C4F" d="M55.972 101.093c.6 1.669.187 3.307-.928 3.659-1.115.351-2.503-.703-3.104-2.372-.6-1.67-.187-3.301.928-3.659 1.115-.357 2.536.71 3.104 2.372Zm14.265-3.552c.594 1.67.18 3.308-.935 3.659-1.114.351-2.503-.709-3.104-2.372-.6-1.663-.186-3.3.928-3.659 1.115-.357 2.51.71 3.11 2.373Zm1.482 12.576a3.883 3.883 0 0 1-2.804.094 5.308 5.308 0 0 1-2.383-1.594 7.698 7.698 0 0 1-.667-.929 4.243 4.243 0 0 0-.594-1.462c.046.201-.047.327-.12.182.047.427.141.847.28 1.255a5.553 5.553 0 0 1-.3 1.839 5.225 5.225 0 0 1-2.15 2.862 5.808 5.808 0 0 1-3.591.935 6.762 6.762 0 0 1-3.318-.973 5.311 5.311 0 0 0 3.224 1.707 5.968 5.968 0 0 0 2.225-.026 5.795 5.795 0 0 0 2.04-.839 5.413 5.413 0 0 0 1.53-1.519 5.07 5.07 0 0 0 .78-1.959 4.53 4.53 0 0 0 .087-.891l.107.182a4.982 4.982 0 0 0 2.603 1.971c.546.186 1.13.255 1.707.201a4.039 4.039 0 0 0 1.63-.515 2.97 2.97 0 0 0 1.033-.976c.254-.399.402-.85.43-1.315a3.118 3.118 0 0 1-.686 1.05c-.3.303-.662.548-1.063.72Z"/>
    <path fill="#422C4F" d="M67.08 105.473a8.044 8.044 0 0 0-4.593 1.168 7.14 7.14 0 0 0 3.338 1.437 9.646 9.646 0 0 0 1.254-2.605Z"/>
    <path fill="#645B79" d="M47.982 120.615a17.08 17.08 0 0 0 5.456 3.706 17.978 17.978 0 0 0 6.555 1.438 18.077 18.077 0 0 0 6.637-1.053 17.275 17.275 0 0 0 5.69-3.382 9.706 9.706 0 0 1 0-3.187c-9.239 4.229-18.825 5.032-24.338 2.478Zm36.126 31.922c-1.535-5.108-4.005-10.668-6.328-15.882a13.717 13.717 0 0 0-4.866-2.943c-4.005-1.312-8.678-.107-11.736 2.679-4.539 4.173-4.672 10.536-3.337 16.002 1.001 4.179 2.67 8.208 3.698 12.381a45.746 45.746 0 0 1-1.409 26.833c-.914 2.51-2.062 4.963-2.67 7.53-.607 2.566-.734 5.39.408 7.819a7.772 7.772 0 0 0 2.002 2.616c11.722.666 22.53-7.235 24.972-13.805 3.331-8.973 2.977-30.73-.734-43.23Z"/>
    <path fill="#BD6C67" d="m29.645 159.07 36.94-20.169c8.1-4.42 17.034-7.327 26.308-8.559l6.308-.841c4.919 0 10.253.847 14.078 3.765.574.439 1.181 1.123.727 1.763a1.247 1.247 0 0 1-.525.389 1.336 1.336 0 0 1-.663.082l-9.732-.916c4.112.772 8.344 1.588 11.868 3.727.458.241.845.584 1.128.998a1.101 1.101 0 0 1-.133 1.362 1.953 1.953 0 0 1-1.522.226l-12.569-1.588c3.938 1.142 7.95 2.316 11.347 4.525a3.883 3.883 0 0 1 1.335 1.255 1.415 1.415 0 0 1-.08 1.65c-.54.577-1.502.483-2.303.345l-11.588-2.033c3.244 1.205 6.522 2.435 9.346 4.361.907.628 1.862 1.582 1.415 2.604a1.672 1.672 0 0 1-.492.599c-.21.161-.458.274-.723.33a4.582 4.582 0 0 1-2.75-.452 60.623 60.623 0 0 1-8.918-4.392c-5.14 1.512-11.582.627-15.76-2.554l-36.715 33.716a13.761 13.761 0 0 1-4.956 2.896 14.406 14.406 0 0 1-5.79.675 14.219 14.219 0 0 1-5.56-1.67 13.327 13.327 0 0 1-4.3-3.708 12.398 12.398 0 0 1-2.204-4.825 12.031 12.031 0 0 1 .047-5.252 12.43 12.43 0 0 1 2.29-4.79 13.334 13.334 0 0 1 4.146-3.519Z"/>
    <path fill="#422C4F" d="M29.645 159.22a.168.168 0 0 1-.14-.075.143.143 0 0 1-.013-.112.154.154 0 0 1 .073-.089l36.94-20.168c8.114-4.443 17.07-7.358 26.368-8.585a.172.172 0 0 1 .117.028.152.152 0 0 1 .061.156.138.138 0 0 1-.026.054.152.152 0 0 1-.106.057c-9.257 1.224-18.174 4.126-26.253 8.547l-36.941 20.168a.172.172 0 0 1-.08.019Z"/>
    <path fill="#967F92" d="M59.483 148.207c2.316 1.412 5.774 1.117 7.496-.916a5.615 5.615 0 0 0 1.235-3.451 6.535 6.535 0 0 0-.546-2.877 6.907 6.907 0 0 0-1.763-2.407 6.38 6.38 0 0 0-2.731-1.373 6.642 6.642 0 0 0-3.097.03c-5.34 1.469-4.672 8.528-.594 10.994Z"/>
    <path fill="#422C4F" d="M62.707 149.23a6.368 6.368 0 0 1-3.337-.897 7.411 7.411 0 0 1-2.332-2.421 6.912 6.912 0 0 1-.96-3.139.144.144 0 0 1 .038-.11.16.16 0 0 1 .11-.053.172.172 0 0 1 .12.037.154.154 0 0 1 .053.107 6.628 6.628 0 0 0 .925 3.017 7.115 7.115 0 0 0 2.246 2.323c2.336 1.425 5.674 1.017 7.283-.884a5.474 5.474 0 0 0 1.201-3.364 6.398 6.398 0 0 0-.534-2.811 6.76 6.76 0 0 0-1.722-2.353 6.28 6.28 0 0 0-2.123-1.18 6.19 6.19 0 0 0-3.551-.126c-3.338.559-7.09 3.207-9.646 5.159a.15.15 0 0 1-.052.032.162.162 0 0 1-.123 0 .15.15 0 0 1-.098-.136.138.138 0 0 1 .046-.103c2.584-1.971 6.402-4.657 9.773-5.221a6.541 6.541 0 0 1 3.731.138c.825.274 1.583.7 2.23 1.255a7.075 7.075 0 0 1 1.801 2.458 6.7 6.7 0 0 1 .562 2.938 5.769 5.769 0 0 1-1.269 3.546 5.596 5.596 0 0 1-1.973 1.353 5.91 5.91 0 0 1-2.399.435Z"/>
    <path fill="#422C4F" d="M61.68 149.149a.181.181 0 0 1-.074 0 .151.151 0 0 1-.084-.086.137.137 0 0 1 .01-.115 6.415 6.415 0 0 0 .274-4.311.15.15 0 0 1 .017-.116.161.161 0 0 1 .216-.056.15.15 0 0 1 .074.09 6.618 6.618 0 0 1-.294 4.525.164.164 0 0 1-.14.069Zm4.799-1.205h-.054a.15.15 0 0 1-.092-.074.129.129 0 0 1-.001-.114 5.12 5.12 0 0 0 .27-2.242 5.192 5.192 0 0 0-.724-2.151.142.142 0 0 1-.012-.107.15.15 0 0 1 .068-.087.174.174 0 0 1 .112-.023.163.163 0 0 1 .099.054 5.41 5.41 0 0 1 .78 2.275 5.334 5.334 0 0 1-.293 2.375.154.154 0 0 1-.062.068.173.173 0 0 1-.091.026Z"/>
    <path fill="#967F92" d="M73.942 141.072c2.323 1.412 5.78 1.117 7.503-.916a5.632 5.632 0 0 0 1.235-3.457 6.601 6.601 0 0 0-.553-2.875 6.964 6.964 0 0 0-1.757-2.409 6.396 6.396 0 0 0-2.732-1.368 6.65 6.65 0 0 0-3.096.031c-5.367 1.475-4.646 8.528-.6 10.994Z"/>
    <path fill="#422C4F" d="M77.172 142.095a6.469 6.469 0 0 1-3.337-.897 7.418 7.418 0 0 1-2.326-2.423 6.917 6.917 0 0 1-.958-3.137c0-.04.016-.078.047-.106a.162.162 0 0 1 .113-.044c.042 0 .083.015.113.044.03.028.047.066.047.106a6.595 6.595 0 0 0 .91 3.007 7.084 7.084 0 0 0 2.227 2.321c2.343 1.431 5.681 1.023 7.29-.879a5.47 5.47 0 0 0 1.201-3.363 6.424 6.424 0 0 0-.535-2.814 6.786 6.786 0 0 0-1.72-2.357 6.297 6.297 0 0 0-2.124-1.18 6.199 6.199 0 0 0-3.55-.125.175.175 0 0 1-.124-.016.158.158 0 0 1-.077-.091.135.135 0 0 1 .015-.114.154.154 0 0 1 .098-.068 6.578 6.578 0 0 1 3.745.126 6.648 6.648 0 0 1 2.23 1.255 7.075 7.075 0 0 1 1.801 2.458 6.7 6.7 0 0 1 .562 2.938 5.787 5.787 0 0 1-1.275 3.546 5.574 5.574 0 0 1-1.97 1.369 5.899 5.899 0 0 1-2.403.444Z"/>
    <path fill="#422C4F" d="M76.138 142.014a.15.15 0 0 1-.067 0 .157.157 0 0 1-.08-.086.143.143 0 0 1 .007-.115 6.462 6.462 0 0 0 .273-4.311.15.15 0 0 1 .017-.116.162.162 0 0 1 .097-.072.172.172 0 0 1 .118.013c.036.019.063.05.075.087a6.636 6.636 0 0 1-.293 4.531.153.153 0 0 1-.064.053.171.171 0 0 1-.083.016Zm4.806-1.205h-.053a.163.163 0 0 1-.094-.077.147.147 0 0 1-.007-.118 5.11 5.11 0 0 0 .274-2.241 5.182 5.182 0 0 0-.72-2.151.144.144 0 0 1 .046-.207.165.165 0 0 1 .178.007.143.143 0 0 1 .042.043c.429.698.693 1.474.776 2.276a5.334 5.334 0 0 1-.295 2.374.142.142 0 0 1-.057.07.158.158 0 0 1-.09.024Z"/>
    <path fill="#967F92" d="M47.394 177.789a43.82 43.82 0 0 1 7.577-4.217 15.312 15.312 0 0 1 8.63-1.004c4.887 1.016 8.532 5.296 9.473 9.921.941 4.625-.474 9.45-2.917 13.554-2.443 4.104-5.861 7.618-9.245 11.088 8.057 1.343 12.843 1.45 18.023.703s8.163 3.903 8.163 7.53H52.462a4.068 4.068 0 0 1-1.812-.421 3.797 3.797 0 0 1-1.392-1.17 3.502 3.502 0 0 1-.648-1.645 3.44 3.44 0 0 1 .247-1.74L50.265 207c-18.664-16.749-2.87-29.211-2.87-29.211Z"/>
    <path fill="#422C4F" d="M87.125 215.49H52.461a4.253 4.253 0 0 1-1.875-.449 3.965 3.965 0 0 1-1.438-1.218 3.658 3.658 0 0 1-.67-1.706 3.588 3.588 0 0 1 .251-1.804.152.152 0 0 1 .084-.084.168.168 0 0 1 .123-.004.16.16 0 0 1 .09.079.144.144 0 0 1 .004.116 3.296 3.296 0 0 0-.236 1.667c.067.566.28 1.107.621 1.578.341.47.8.855 1.335 1.12a3.896 3.896 0 0 0 1.737.404h34.505a7.833 7.833 0 0 0-.794-3.212 8.289 8.289 0 0 0-2.07-2.662 6.321 6.321 0 0 0-2.395-1.214 6.573 6.573 0 0 0-2.718-.129c-5.44.785-10.347.596-18.104-.703a.144.144 0 0 1-.126-.1.143.143 0 0 1 0-.144c3.337-3.414 6.782-6.947 9.225-11.057 2.71-4.556 3.738-9.331 2.897-13.454-.981-4.838-4.826-8.867-9.345-9.808a15.07 15.07 0 0 0-8.518 1.004 44.125 44.125 0 0 0-7.55 4.198.163.163 0 0 1-.119.026.167.167 0 0 1-.057-.022.146.146 0 0 1-.044-.042.142.142 0 0 1-.025-.111.15.15 0 0 1 .065-.096 43.838 43.838 0 0 1 7.603-4.229 15.423 15.423 0 0 1 8.678-1.023c4.673.966 8.584 5.095 9.592 10.04.855 4.192-.187 9.043-2.93 13.655-2.417 4.066-5.788 7.53-9.072 10.912 7.557 1.255 12.376 1.425 17.716.628a6.893 6.893 0 0 1 2.838.14 6.626 6.626 0 0 1 2.502 1.266 8.587 8.587 0 0 1 2.189 2.844 8.12 8.12 0 0 1 .789 3.431.14.14 0 0 1-.017.096.158.158 0 0 1-.077.067Z"/>
    <path fill="#422C4F" d="M82.553 215.49a.18.18 0 0 1-.061-.014.15.15 0 0 1-.05-.035.14.14 0 0 1-.033-.05.138.138 0 0 1-.01-.058 5.65 5.65 0 0 0-.9-3.045 6.146 6.146 0 0 0-2.438-2.176.154.154 0 0 1-.08-.088.144.144 0 0 1 .01-.116.157.157 0 0 1 .094-.075.174.174 0 0 1 .123.009 6.407 6.407 0 0 1 2.57 2.291c.617.97.938 2.082.928 3.213a.147.147 0 0 1-.047.1.166.166 0 0 1-.106.044Zm2.623 0a.177.177 0 0 1-.108-.058.16.16 0 0 1-.039-.112 5.858 5.858 0 0 0-.643-3.019 6.295 6.295 0 0 0-2.114-2.352.15.15 0 0 1-.064-.098.143.143 0 0 1 .028-.112.167.167 0 0 1 .224-.035 6.623 6.623 0 0 1 2.216 2.475c.505.987.737 2.079.674 3.173a.156.156 0 0 1-.058.101.171.171 0 0 1-.116.037Z"/>
    <path fill="#422C4F" d="M216.585 218H2.25a1.46 1.46 0 0 1-1.001-.39 1.29 1.29 0 0 1-.415-.94c0-.175.037-.348.108-.509.071-.162.175-.308.307-.432.131-.124.287-.222.459-.288.172-.067.356-.102.541-.102h214.336a1.485 1.485 0 0 1 1 .39c.132.124.236.27.307.432.071.161.108.334.108.509 0 .352-.149.691-.415.94-.265.25-.625.39-1 .39Z"/>
  </g>
  <defs>
    <clipPath id="a">
      <path fill="#fff" d="M0 0h218v218H0z"/>
    </clipPath>
  </defs>
</svg>
