<svg xmlns="http://www.w3.org/2000/svg" width="70" height="69" fill="none" viewBox="0 0 70 69">
  <path fill="#9191A1" d="M35 0C15.67 0 0 15.446 0 34.5 0 53.554 15.67 69 35 69s35-15.446 35-34.5C70 15.446 54.33 0 35 0ZM17.359 14.576l6.23 1.929c.824.267 1.373 1.021 1.469 1.794l.35 3.381 28.207 3.104c1.211.231 2.062 1.31 1.893 2.418l-1.752 9.728c-.223 1.017-1.078 1.715-2.03 1.726H26.67l-.492 2.759h23.798c1.244.043 2.156.977 2.17 2.068-.051 1.244-1.069 2.058-2.17 2.072H23.657c-1.328-.108-2.302-1.145-2.098-2.413l1.12-6.073-1.752-16.976-4.828-1.516a2.16 2.16 0 0 1-1.26-1.037c-.53-1.094-.036-2.305.91-2.83a2.014 2.014 0 0 1 1.61-.134Zm9.485 32.17c1.812 0 3.281 1.449 3.281 3.235 0 1.786-1.469 3.235-3.281 3.235s-3.281-1.449-3.281-3.235c0-1.786 1.469-3.234 3.28-3.234Zm19.26 0c1.812 0 3.281 1.449 3.281 3.235 0 1.786-1.469 3.235-3.28 3.235-1.813 0-3.282-1.449-3.282-3.235 0-1.786 1.469-3.234 3.281-3.234Z"/>
</svg>
