<svg xmlns="http://www.w3.org/2000/svg" width="51" height="51" fill="none" viewBox="0 0 51 51">
  <path stroke="#000" d="M14.375 20.188a4.812 4.812 0 1 1-9.625 0 4.812 4.812 0 0 1 9.625 0Zm9.563-8.5a4.812 4.812 0 1 1-9.625 0 4.812 4.812 0 0 1 9.624 0Zm12.75 0a4.812 4.812 0 1 1-9.625 0 4.812 4.812 0 0 1 9.625 0Zm9.562 8.5a4.812 4.812 0 1 1-9.625 0 4.812 4.812 0 0 1 9.625 0Zm-15.053 5.53.002.002a564.386 564.386 0 0 1 3.36 3.938c.617.726 1.243 1.464 1.908 2.244l.38-.325-.353.354.505.503c1.256 1.247 2.54 2.523 3.498 3.942 1.07 1.585 1.7 3.303 1.407 5.295-.588 2.016-2.028 3.983-4.562 4.547-.31.057-.84.045-1.604-.029a71.278 71.278 0 0 1-2.23-.27l-.493-.063c-2.091-.271-4.675-.584-7.345-.584h-.383c-2.67 0-5.254.318-7.345.592l-.437.057a65.58 65.58 0 0 1-2.284.277c-.768.073-1.296.082-1.602.02-2.538-.563-3.978-2.51-4.565-4.546-.283-1.98.35-3.694 1.424-5.277.96-1.416 2.243-2.69 3.498-3.936l.509-.507.013-.013.012-.014c1.2-1.39 2.27-2.652 3.37-3.948.615-.725 1.239-1.46 1.9-2.236.983-1.129 2.143-2.192 3.502-2.658l.009-.003a3.8 3.8 0 0 1 .62-.17h.005c.497-.096 1.023-.098 1.584-.098.559 0 1.09.002 1.573.078.203.038.408.093.615.169l.009.003c1.36.466 2.543 1.533 3.5 2.656Z"/>
</svg>
