<svg xmlns="http://www.w3.org/2000/svg" width="51" height="51" fill="none" viewBox="0 0 51 51">
  <path fill="#fff" d="M0 0h51v51H0z"/>
  <path fill="#3F85ED" d="M9.563 25.5a5.313 5.313 0 1 0 0-10.625 5.313 5.313 0 0 0 0 10.625Zm9.562-8.5a5.313 5.313 0 1 0 0-10.625 5.313 5.313 0 0 0 0 10.625Zm12.75 0a5.313 5.313 0 1 0 0-10.625 5.313 5.313 0 0 0 0 10.625Zm9.563 8.5a5.313 5.313 0 1 0 0-10.625 5.313 5.313 0 0 0 0 10.625Zm-4.59 6.078c-1.85-2.168-3.4-4.017-5.27-6.184-.978-1.148-2.232-2.295-3.72-2.805a4.303 4.303 0 0 0-.7-.191c-.532-.085-1.105-.085-1.658-.085-.552 0-1.126 0-1.679.106a4.303 4.303 0 0 0-.7.191c-1.488.51-2.72 1.657-3.72 2.805-1.848 2.168-3.4 4.016-5.27 6.184-2.783 2.784-6.205 5.865-5.567 10.179.616 2.167 2.167 4.313 4.951 4.93 1.551.318 6.503-.935 11.773-.935h.382c5.27 0 10.221 1.232 11.773.934 2.783-.616 4.335-2.783 4.95-4.93.66-4.334-2.762-7.416-5.545-10.2Z"/>
</svg>
