<svg xmlns="http://www.w3.org/2000/svg" width="50" height="49" fill="none" viewBox="0 0 50 49">
  <path fill="#3F85ED" d="M14.597 36.75c-2.291 0-4.146 1.837-4.146 4.083 0 2.246 1.854 4.084 4.146 4.084s4.167-1.838 4.167-4.084c0-2.245-1.875-4.083-4.167-4.083ZM2.097 4.083v4.084h4.167l7.5 15.496-2.813 5.002a3.887 3.887 0 0 0-.52 1.96c0 2.246 1.875 4.083 4.166 4.083h25v-4.083H15.472a.51.51 0 0 1-.52-.51l.062-.245 1.875-3.328h15.52c1.563 0 2.938-.837 3.647-2.103l7.458-13.25c.166-.287.25-.633.25-.98 0-1.124-.938-2.042-2.084-2.042H10.869L8.91 4.083H2.097ZM35.431 36.75c-2.292 0-4.146 1.837-4.146 4.083 0 2.246 1.854 4.084 4.146 4.084 2.291 0 4.166-1.838 4.166-4.084 0-2.245-1.875-4.083-4.166-4.083Z"/>
</svg>
