<svg xmlns="http://www.w3.org/2000/svg" width="66" height="45" fill="none" viewBox="0 0 66 45">
  <path stroke="#0093C4" stroke-linecap="round" stroke-linejoin="round" stroke-width="1.6" d="M42.623 34.663h12.021c5.768 0 10.441-4.042 10.441-9.03 0-4.988-4.673-9.031-10.44-9.031-.027 0-.051.003-.078.003.081-.564.136-1.136.136-1.719C54.703 7.217 47.517 1 38.65 1c-6.91 0-12.78 3.782-15.045 9.076C22.17 8.83 20.182 8.06 17.988 8.06c-4.385 0-7.94 3.074-7.94 6.866 0 .098.014.191.018.287-4.843 1.158-8.404 4.986-8.404 9.542 0 5.473 5.128 9.908 11.456 9.908h11.006"/>
  <path stroke="#0093C4" stroke-linecap="round" stroke-width="1.6" d="m26.767 26.663 6.606-5.715 6.607 5.715m-6.607 17.143V21.33"/>
</svg>
