<svg xmlns="http://www.w3.org/2000/svg" width="42" height="42" fill="none" viewBox="0 0 42 42">
  <path fill="#77838F" fill-rule="evenodd" d="m41.245 9.588-4.614-4.614-.002-.002-.001-.001L32.014.357a1.218 1.218 0 1 0-1.724 1.724l3.754 3.753-2.892 2.892-1.446-1.446a4.452 4.452 0 0 0-3.17-1.309 4.448 4.448 0 0 0-3.169 1.31L7.28 23.366a4.488 4.488 0 0 0 0 6.34l1.447 1.445-8.37 8.37a1.218 1.218 0 1 0 1.724 1.723l8.369-8.37 1.446 1.447a4.45 4.45 0 0 0 3.17 1.308 4.45 4.45 0 0 0 3.17-1.308l1.844-1.846h.002v-.001l3.887-3.888h.002v-.002l3.887-3.886.002-.002.002-.002 6.46-6.46a4.452 4.452 0 0 0 1.309-3.17 4.45 4.45 0 0 0-1.31-3.17l-1.445-1.445 2.891-2.892 3.754 3.754a1.217 1.217 0 0 0 1.724 0 1.218 1.218 0 0 0 0-1.724Zm-26.18 23.605a2.03 2.03 0 0 1-1.446-.595l-2.306-2.306-.002-.002v-.001l-2.307-2.306a2.047 2.047 0 0 1 0-2.893L21.92 12.174l7.507 7.507-2.43 2.43-1.908-1.907a1.219 1.219 0 1 0-1.723 1.723l1.907 1.908L23.108 26l-3.753-3.754a1.219 1.219 0 0 0-1.724 1.724l3.754 3.753-2.166 2.166-1.907-1.908a1.22 1.22 0 0 0-1.724 1.724l1.908 1.907-.985.985a2.029 2.029 0 0 1-1.446.595Zm16.087-15.236 1.446-1.446a2.03 2.03 0 0 0 .595-1.445 2.03 2.03 0 0 0-.596-1.447l-4.615-4.615a2.03 2.03 0 0 0-1.446-.595 2.03 2.03 0 0 0-1.446.595l-1.445 1.446 7.507 7.507Zm-4.233 20.382c0-3.599 3.019-6.526 6.73-6.526 3.71 0 6.73 2.927 6.73 6.526a3.18 3.18 0 0 1-.549 1.785 3.386 3.386 0 0 1-2.817 1.478c-.827 0-1.465-.183-2.028-.345h-.002c-.463-.133-.862-.248-1.334-.248-.473 0-.872.115-1.334.248h-.003c-.563.162-1.201.345-2.028.345a3.384 3.384 0 0 1-2.817-1.478 3.18 3.18 0 0 1-.548-1.785Zm10.093.889c.31 0 .598-.152.769-.405a.859.859 0 0 0 .148-.484c0-2.29-1.92-4.151-4.281-4.151-2.36 0-4.28 1.862-4.28 4.15 0 .174.05.341.148.486.17.253.458.404.768.404.472 0 .872-.115 1.334-.248.564-.162 1.203-.346 2.03-.346.827 0 1.466.184 2.03.346.462.133.862.248 1.334.248Z" clip-rule="evenodd"/>
  <path fill="#77838F" d="M29.008 30.232c.228-.229.358-.543.358-.866 0-.322-.13-.637-.358-.865a1.234 1.234 0 0 0-.866-.359c-.322 0-.637.131-.865.359a1.235 1.235 0 0 0-.358.865c0 .323.13.637.358.866.229.227.543.358.865.358.323 0 .638-.13.866-.358Zm3.67-2.448a1.23 1.23 0 0 0 .358-.865c0-.322-.13-.637-.358-.866a1.234 1.234 0 0 0-.865-.358c-.322 0-.638.13-.865.358a1.235 1.235 0 0 0-.359.866 1.228 1.228 0 0 0 1.224 1.223c.321 0 .637-.13.865-.358Zm3.672 0c.227-.228.357-.543.357-.865 0-.323-.13-.637-.358-.866a1.233 1.233 0 0 0-.865-.358c-.323 0-.637.13-.865.358a1.232 1.232 0 0 0-.359.866 1.228 1.228 0 0 0 1.224 1.223c.322 0 .638-.13.865-.358Zm3.67 2.448c.227-.229.358-.543.358-.866 0-.322-.13-.637-.358-.865a1.233 1.233 0 0 0-.866-.359c-.322 0-.637.131-.865.359a1.235 1.235 0 0 0-.358.865c0 .323.13.637.358.866.228.227.543.358.865.358.322 0 .637-.13.866-.358Z"/>
</svg>
