<svg xmlns="http://www.w3.org/2000/svg" width="62" height="33" fill="none" viewBox="0 0 62 33">
  <g clip-path="url(#a)">
    <path fill="#F73A44" d="M55.572.809H6.965C3.594.809.921 2.599.921 4.832l-.03 24.142c0 2.233 2.703 4.024 6.075 4.024h48.605c3.373 0 6.076-1.79 6.076-4.024V4.832C61.647 2.6 58.944.81 55.572.81Zm-34.936 22.13h-3.645l-7.746-7.042v7.042H5.447V10.868h3.798l7.594 7.041v-7.041h3.798v12.07Zm15.19-9.536H28.23v2.253h7.595v2.535H28.23v2.233h7.595v2.515H23.674V10.868h12.152v2.535Zm21.264 7.524c0 1.107-1.367 2.012-3.037 2.012H41.9c-1.67 0-3.038-.905-3.038-2.012v-10.06h3.798v9.074h3.432V12.86h3.798v7.061h3.402v-9.053h3.797v10.059Z"/>
  </g>
  <defs>
    <clipPath id="a">
      <path fill="#fff" d="M0 0h60.757v32.189H0z" transform="translate(.89 .809)"/>
    </clipPath>
  </defs>
</svg>
