<svg xmlns="http://www.w3.org/2000/svg" width="41" height="49" fill="none" viewBox="0 0 41 49">
  <path fill="#77838F" fill-rule="evenodd" d="M0 38.576C0 27.782 9.057 19 20.189 19s20.19 8.782 20.19 19.576a9.55 9.55 0 0 1-1.645 5.355c-1.875 2.778-5.035 4.435-8.453 4.435-2.48 0-4.395-.55-6.083-1.034l-.006-.002c-1.388-.399-2.587-.743-4.003-.743-1.417 0-2.615.344-4.002.743l-.008.002c-1.69.485-3.604 1.034-6.083 1.034-3.418 0-6.578-1.658-8.45-4.435A9.54 9.54 0 0 1 0 38.576Zm30.28 2.667a2.77 2.77 0 0 0 2.305-1.213c.292-.431.446-.934.445-1.454 0-6.866-5.762-12.452-12.843-12.452S7.345 31.71 7.345 38.576c0 .52.154 1.023.445 1.455a2.77 2.77 0 0 0 2.305 1.212c1.416 0 2.615-.344 4.003-.743 1.69-.486 3.607-1.037 6.09-1.037 2.481 0 4.398.551 6.09 1.037 1.387.399 2.585.743 4.002.743Z" clip-rule="evenodd"/>
  <path fill="#77838F" d="M6.267 14.49a3.698 3.698 0 0 0 1.075-2.596 3.7 3.7 0 0 0-1.075-2.596 3.702 3.702 0 0 0-2.596-1.075c-.967 0-1.914.392-2.597 1.075A3.704 3.704 0 0 0 0 11.894a3.7 3.7 0 0 0 1.074 2.597 3.7 3.7 0 0 0 2.597 1.074c.966 0 1.912-.391 2.596-1.074Zm11.011-7.341a3.7 3.7 0 0 0 1.075-2.597 3.71 3.71 0 0 0-1.075-2.597A3.703 3.703 0 0 0 14.682.882c-.967 0-1.914.39-2.596 1.073a3.705 3.705 0 0 0-1.075 2.597c0 .967.391 1.913 1.075 2.597a3.697 3.697 0 0 0 2.596 1.074 3.71 3.71 0 0 0 2.596-1.074Zm11.013 0a3.7 3.7 0 0 0 1.075-2.597c0-.967-.392-1.911-1.075-2.597A3.698 3.698 0 0 0 25.695.882 3.69 3.69 0 0 0 23.1 1.955a3.694 3.694 0 0 0-1.076 2.597A3.69 3.69 0 0 0 23.1 7.15a3.698 3.698 0 0 0 2.595 1.074c.966 0 1.913-.392 2.596-1.074Zm11.011 7.341a3.702 3.702 0 0 0 1.075-2.596c0-.966-.392-1.91-1.075-2.596a3.699 3.699 0 0 0-2.596-1.075 3.7 3.7 0 0 0-2.596 1.075 3.704 3.704 0 0 0-1.075 2.596 3.7 3.7 0 0 0 1.075 2.597 3.7 3.7 0 0 0 2.596 1.074 3.7 3.7 0 0 0 2.596-1.074Z"/>
</svg>
