<svg xmlns="http://www.w3.org/2000/svg" xmlns:xlink="http://www.w3.org/1999/xlink" width="42" height="25" fill="none" viewBox="0 0 42 25">
  <g clip-path="url(#a)">
    <path fill="url(#b)" d="M0 0h38v3H0z"/>
    <mask id="d" width="38" height="3" x="0" y="0" maskUnits="userSpaceOnUse" style="mask-type:alpha">
      <path fill="url(#c)" d="M0 0h38v3H0z"/>
    </mask>
    <g mask="url(#d)">
      <path fill="#000" fill-opacity=".01" d="M0 0h38v3H0z"/>
    </g>
    <path fill="url(#e)" d="M0 11h8v3H0z"/>
    <mask id="g" width="8" height="3" x="0" y="11" maskUnits="userSpaceOnUse" style="mask-type:alpha">
      <path fill="url(#f)" d="M0 11h8v3H0z"/>
    </mask>
    <g mask="url(#g)">
      <path fill="#000" fill-opacity=".01" d="M0 11h8v3H0z"/>
    </g>
    <path fill="url(#h)" d="M11 11h22v3H11z"/>
    <mask id="j" width="22" height="3" x="11" y="11" maskUnits="userSpaceOnUse" style="mask-type:alpha">
      <path fill="url(#i)" d="M11 11h22v3H11z"/>
    </mask>
    <g mask="url(#j)">
      <path fill="#000" fill-opacity=".01" d="M11 11h22v3H11z"/>
    </g>
    <path fill="url(#k)" d="M0 22h42v3H0z"/>
    <mask id="m" width="42" height="3" x="0" y="22" maskUnits="userSpaceOnUse" style="mask-type:alpha">
      <path fill="url(#l)" d="M0 22h42v3H0z"/>
    </mask>
    <g mask="url(#m)">
      <path fill="#000" fill-opacity=".01" d="M0 22h42v3H0z"/>
    </g>
  </g>
  <defs>
    <pattern id="b" width="1" height="1" patternContentUnits="objectBoundingBox">
      <use xlink:href="#n" transform="scale(.02632 .33333)"/>
    </pattern>
    <pattern id="c" width="1" height="1" patternContentUnits="objectBoundingBox">
      <use xlink:href="#n" transform="scale(.02632 .33333)"/>
    </pattern>
    <pattern id="e" width="1" height="1" patternContentUnits="objectBoundingBox">
      <use xlink:href="#o" transform="scale(.125 .33333)"/>
    </pattern>
    <pattern id="f" width="1" height="1" patternContentUnits="objectBoundingBox">
      <use xlink:href="#o" transform="scale(.125 .33333)"/>
    </pattern>
    <pattern id="h" width="1" height="1" patternContentUnits="objectBoundingBox">
      <use xlink:href="#p" transform="scale(.04545 .33333)"/>
    </pattern>
    <pattern id="i" width="1" height="1" patternContentUnits="objectBoundingBox">
      <use xlink:href="#p" transform="scale(.04545 .33333)"/>
    </pattern>
    <pattern id="k" width="1" height="1" patternContentUnits="objectBoundingBox">
      <use xlink:href="#q" transform="scale(.0238 .33333)"/>
    </pattern>
    <pattern id="l" width="1" height="1" patternContentUnits="objectBoundingBox">
      <use xlink:href="#q" transform="scale(.0238 .33333)"/>
    </pattern>
    <clipPath id="a">
      <path fill="#fff" d="M0 0h42v25H0z"/>
    </clipPath>
  </defs>
</svg>
