<svg xmlns="http://www.w3.org/2000/svg" width="60" height="59" fill="none" viewBox="0 0 60 59">
  <path fill="#fff" fill-rule="evenodd" d="m59.485 13.996-6.654-6.372-.003-.003-.002-.002-6.654-6.372a1.813 1.813 0 0 0-2.486 0 1.633 1.633 0 0 0 0 2.38l5.413 5.184-4.17 3.994-2.086-1.997C41.627 9.643 40.004 9 38.273 9c-1.731 0-3.355.643-4.572 1.808l-23.2 22.218a6.014 6.014 0 0 0 0 8.755l2.085 1.997L.515 55.337a1.633 1.633 0 0 0 0 2.38 1.79 1.79 0 0 0 1.243.493c.45 0 .9-.164 1.243-.493l12.07-11.559 2.086 1.997c1.217 1.166 2.84 1.808 4.571 1.808 1.73 0 3.354-.642 4.571-1.808l2.661-2.548.002-.001v-.001l.002-.001 5.605-5.368.002-.002.002-.002 5.605-5.367.003-.003.003-.003 9.316-8.92c1.217-1.167 1.888-2.721 1.888-4.378 0-1.658-.67-3.212-1.888-4.378l-2.086-1.997 4.171-3.994 5.414 5.184a1.79 1.79 0 0 0 1.243.493c.45 0 .9-.164 1.243-.493a1.632 1.632 0 0 0 0-2.38Zm-37.757 32.6a2.996 2.996 0 0 1-2.085-.821l-3.326-3.186h-.002v-.001l-.002-.002-3.326-3.186a2.743 2.743 0 0 1 0-3.994l18.629-17.84 10.827 10.369-3.505 3.356-2.75-2.634a1.813 1.813 0 0 0-2.487 0 1.633 1.633 0 0 0 0 2.38l2.751 2.635-3.123 2.991-5.414-5.184a1.814 1.814 0 0 0-2.486 0 1.634 1.634 0 0 0 0 2.38l5.414 5.184-3.123 2.991-2.751-2.634a1.814 1.814 0 0 0-2.486 0 1.633 1.633 0 0 0 0 2.38l2.75 2.635-1.42 1.36a2.993 2.993 0 0 1-2.085.821Zm23.2-21.041 2.086-1.997c.553-.53.858-1.24.858-1.997 0-.758-.305-1.467-.858-1.997l-6.657-6.375a2.995 2.995 0 0 0-2.085-.822c-.791 0-1.532.292-2.085.822l-2.085 1.997 10.827 10.369Zm-6.594 27.867c0-5.28 4.485-9.576 10-9.576 5.513 0 10 4.296 10 9.576 0 .933-.282 1.839-.815 2.619-.929 1.359-2.494 2.17-4.187 2.17-1.228 0-2.177-.27-3.013-.507h-.003c-.687-.196-1.281-.364-1.983-.364-.701 0-1.295.168-1.982.364h-.004c-.837.238-1.785.506-3.013.506-1.693 0-3.258-.81-4.186-2.17a4.626 4.626 0 0 1-.815-2.618Zm14.999 1.304a1.38 1.38 0 0 0 1.142-.593 1.25 1.25 0 0 0 .22-.711c0-3.359-2.854-6.091-6.361-6.091-3.508 0-6.361 2.732-6.361 6.09 0 .255.076.5.22.712.254.372.68.593 1.142.593.701 0 1.295-.168 1.983-.363.837-.238 1.786-.508 3.016-.508s2.178.27 3.016.508c.687.195 1.281.363 1.983.363Z" clip-rule="evenodd"/>
  <path fill="#fff" d="M42.846 41.783c.31-.298.487-.708.487-1.129 0-.42-.177-.83-.487-1.129a1.72 1.72 0 0 0-2.358 0c-.31.298-.488.709-.488 1.13 0 .42.178.83.488 1.128a1.719 1.719 0 0 0 2.358 0Zm5-1.596c.31-.297.487-.709.487-1.129 0-.42-.178-.831-.487-1.13a1.72 1.72 0 0 0-2.358 0 1.58 1.58 0 0 0-.488 1.13c0 .42.178.832.488 1.129a1.717 1.717 0 0 0 2.358 0Zm5 0c.31-.297.487-.709.487-1.129 0-.42-.178-.831-.487-1.13a1.718 1.718 0 0 0-2.357 0 1.572 1.572 0 0 0-.489 1.13c0 .42.178.832.489 1.129a1.718 1.718 0 0 0 2.357 0Zm5 1.596c.31-.298.487-.708.487-1.129 0-.42-.178-.83-.487-1.129a1.718 1.718 0 0 0-2.358 0c-.31.298-.488.709-.488 1.13 0 .42.178.83.488 1.128a1.719 1.719 0 0 0 2.358 0Z"/>
</svg>
