<svg xmlns="http://www.w3.org/2000/svg" width="164" height="160" fill="none" viewBox="0 0 164 160">
  <g filter="url(#a)">
    <path fill="#52555D" fill-opacity=".2" d="M33 59.216c0-14.36 11.64-26 26-26h46c14.359 0 26 11.64 26 26v41.846c0 14.359-11.641 26-26 26H59c-14.36 0-26-11.641-26-26V59.216Z"/>
  </g>
  <ellipse cx="82" cy="58.482" fill="#ED7472" rx="49" ry="46.923"/>
  <path fill="#fff" fill-rule="evenodd" d="m112.485 42.996-6.654-6.373a.07.07 0 0 1-.003-.002h-.001l-.001-.002-6.654-6.372a1.813 1.813 0 0 0-2.486 0 1.633 1.633 0 0 0 0 2.38l5.413 5.184-4.17 3.994-2.085-1.997C94.626 38.643 93.003 38 91.272 38c-1.73 0-3.354.643-4.571 1.808l-23.2 22.218a6.014 6.014 0 0 0 0 8.755l2.085 1.997-12.071 11.559a1.633 1.633 0 0 0 0 2.38 1.79 1.79 0 0 0 1.243.493c.45 0 .9-.164 1.243-.493L68.07 75.16l2.086 1.996c1.217 1.166 2.84 1.808 4.571 1.808 1.73 0 3.354-.642 4.572-1.808l2.66-2.548.002-.001v-.001l.002-.001 5.605-5.368.002-.002.002-.002 5.605-5.367.003-.003.003-.003 9.316-8.92c1.217-1.167 1.888-2.721 1.888-4.378 0-1.658-.671-3.212-1.888-4.378l-2.086-1.997 4.171-3.994 5.414 5.184a1.79 1.79 0 0 0 1.243.493c.45 0 .9-.164 1.243-.493a1.632 1.632 0 0 0 0-2.38Zm-37.757 32.6a2.996 2.996 0 0 1-2.085-.821l-3.326-3.186h-.002v-.001l-.002-.002-3.326-3.186a2.743 2.743 0 0 1 0-3.994l18.629-17.84 10.827 10.369-3.505 3.356-2.75-2.634a1.813 1.813 0 0 0-2.487 0 1.633 1.633 0 0 0 0 2.38l2.751 2.635-3.123 2.991-5.414-5.184a1.814 1.814 0 0 0-2.486 0 1.634 1.634 0 0 0 0 2.38l5.414 5.184-3.123 2.991-2.751-2.634a1.814 1.814 0 0 0-2.486 0 1.633 1.633 0 0 0 0 2.38l2.75 2.635-1.42 1.36a2.993 2.993 0 0 1-2.085.821Zm23.2-21.041 2.086-1.998c.553-.529.858-1.238.858-1.996s-.305-1.467-.858-1.997l-6.657-6.375a2.995 2.995 0 0 0-2.085-.822c-.791 0-1.532.292-2.085.822l-2.085 1.997 10.827 10.369Zm-6.594 27.867c0-5.28 4.485-9.576 9.999-9.576s10 4.296 10 9.576c0 .933-.281 1.838-.814 2.619-.929 1.359-2.494 2.17-4.187 2.17-1.228 0-2.177-.27-3.013-.507h-.003c-.687-.195-1.281-.364-1.983-.364-.701 0-1.295.168-1.982.364h-.004c-.837.238-1.785.506-3.013.506-1.693 0-3.258-.81-4.186-2.17a4.626 4.626 0 0 1-.814-2.618Zm14.999 1.304c.461 0 .888-.222 1.141-.593a1.25 1.25 0 0 0 .221-.711c0-3.359-2.854-6.091-6.361-6.091-3.508 0-6.361 2.732-6.361 6.09 0 .255.076.5.22.712.254.372.68.593 1.142.593.702 0 1.295-.168 1.983-.363.837-.238 1.786-.507 3.016-.507 1.229 0 2.179.269 3.016.507.687.195 1.281.363 1.983.363Z" clip-rule="evenodd"/>
  <path fill="#fff" d="M95.846 70.783c.31-.298.487-.708.487-1.129 0-.42-.177-.83-.487-1.129a1.72 1.72 0 0 0-2.358 0c-.31.298-.488.709-.488 1.13 0 .42.178.83.488 1.128a1.719 1.719 0 0 0 2.358 0Zm4.999-1.596c.31-.297.488-.709.488-1.129 0-.42-.178-.831-.488-1.13a1.72 1.72 0 0 0-2.357 0 1.58 1.58 0 0 0-.488 1.13c0 .42.177.832.488 1.129a1.717 1.717 0 0 0 2.357 0Zm5 0c.31-.297.488-.709.488-1.129 0-.42-.178-.831-.488-1.13a1.716 1.716 0 0 0-1.178-.466c-.44 0-.868.17-1.178.467a1.574 1.574 0 0 0-.489 1.129c0 .42.178.832.489 1.129a1.718 1.718 0 0 0 2.356 0Zm5 1.596c.31-.298.488-.708.488-1.129 0-.42-.178-.83-.488-1.129a1.716 1.716 0 0 0-2.357 0c-.31.298-.488.709-.488 1.13 0 .42.178.83.488 1.128a1.718 1.718 0 0 0 2.357 0Z"/>
  <defs>
    <filter id="a" width="163.239" height="159.085" x=".381" y=".596" color-interpolation-filters="sRGB" filterUnits="userSpaceOnUse">
      <feFlood flood-opacity="0" result="BackgroundImageFix"/>
      <feBlend in="SourceGraphic" in2="BackgroundImageFix" result="shape"/>
      <feGaussianBlur result="effect1_foregroundBlur_28_2917" stdDeviation="16.31"/>
    </filter>
  </defs>
</svg>
