<svg xmlns="http://www.w3.org/2000/svg" width="50" height="49" fill="none" viewBox="0 0 50 49">
  <path stroke="#000" d="M6.264 7.667H2.597V4.583h5.998l1.822 3.8.136.284h31.128c.879 0 1.583.704 1.583 1.541 0 .272-.066.53-.182.729l-.004.006-7.458 13.25v.002c-.62 1.107-1.828 1.847-3.21 1.847H16.597l-.144.254-1.875 3.328-.032.058-.017.064-.062.245-.016.06v.064c0 .571.463 1.01 1.021 1.01h23.625v3.083h-24.5c-2.025 0-3.666-1.623-3.666-3.583 0-.627.164-1.214.452-1.708l.004-.007 2.813-5.002.128-.228-.114-.235-7.5-15.496-.137-.282h-.313Zm4.687 33.166c0-1.963 1.624-3.583 3.646-3.583 2.025 0 3.667 1.623 3.667 3.583 0 1.96-1.642 3.584-3.667 3.584-2.022 0-3.646-1.62-3.646-3.584Zm20.834 0c0-1.963 1.624-3.583 3.646-3.583 2.025 0 3.666 1.623 3.666 3.583 0 1.96-1.641 3.584-3.666 3.584-2.022 0-3.646-1.62-3.646-3.584Z"/>
</svg>
